<svg class="icons_factory" viewBox="0 0 512 512" xmlns="http://www.w3.org/2000/svg" xmlns:xlink="http://www.w3.org/1999/xlink" version="1.1"><image class="icons_factory_fallback_png" src="http://localhost:8888/wordpress-4-6/wp-content/plugins/icons-factory/presets/BASE@OUL.png" width="512" height="512" /><defs><g style="transform-origin: center;" transform-origin="50% 50%" class="icons_factory_base_code" transform="matrix(1.1,0,0,1.1,0,0)" id="ic_money_money-bag_25-02_1_code"><g transform-origin="50% 50%" class=""><g class="icons_factory_shape icons_factory_ag icons_factory_ag_a" data-index="0"><path id="ic_money_money-bag_25-02_1_1"  stroke="#ffffff" stroke-width="8" fill="#e91e63" d="m170.85 235.9c-15.73 32.18-18.08 56.84-15.44 84.46 1.16 12.12-17.12 36.23-9.25 48.94 4.59 7.41 16.21 12.18 24.69 14.92s37.84 20 84.62 20.76c46.77.76 71.6-19.06 82.5-22.93 10.9-3.86 22.14-2.04 24.8-10.02 5.45-16.35-12.12-34.94-10.26-51.67 3.15-28.39.01-53.44-14.23-83.25-19.98-41.82-55.58-51.28-54.98-62.78.61-11.5 21.07-51.65 17.44-64.97s-29.37-23.39-74.78-1.82c-37.14 17.64-59.12 53.68-48.59 62.67 7.72 6.58 25.88 4.24 36.78-2.72 6.12-3.91 9.54 12.06 5.9 17.94-3.63 5.87-35.88 23.22-49.2 50.47z"  class="icons_factory_shape" data-index="1" data-color="3"></path><path id="ic_money_money-bag_25-02_1_2"  stroke="#ffffff" stroke-width="8" fill="#e91e63" d="m257.13 167.18c6.79 6.03 7.11-36.93 16.2-42.23 10.7-6.24 13.61-11.17 11.43-14.23-4.54-6.36-30.88-2.04-56.31 11.58s-42.73 36.47-36.56 38.6c10.75 3.71 44.12-26.51 52-23.39 7.87 3.13 7.79 24.82 13.24 29.67z"  class="icons_factory_shape" data-index="2" data-color="4"></path></g><g class="icons_factory_shape" data-index="1"><path id="ic_money_money-bag_25-02_1_4"  stroke="#ffffff" stroke-width="8" fill="#e91e63" d="m290.59 184.89c2.52-3.07 11.88-6.51 15.97-2.65s11.13 28.38 8.4 44.96c-2.72 16.57-8.63 37.69-12.94 39.96s-13.24 2.8-17.33-1.74 6.96-23.76 9.23-42.38-7.42-33.16-3.33-38.15z"  class="icons_factory_shape icons_factory_ag icons_factory_ag_e" data-index="4" data-color="1" style="-webkit-transform-origin: 50% 0% !important; transform-origin: 50% 0% !important; -ms-transform-origin: 50% 0% !important; -webkit-transform-box: fill-box; transform-box: fill-box;"></path><path id="ic_money_money-bag_25-02_1_5"  stroke="#ffffff" stroke-width="8" fill="#e91e63" d="m354.77 245.13c-1.59-4.31-22.78-39.05-29.82-47.45s-18.16-25.66-38.67-26.87c-.99-.06-2.42-.04-2.67 1.19-.28 8.19-4.6 10.24-30.25 9.56-15.69-.42-34.44-8.4-37.84-6.36-5.62 3.37-9.08 13.4-5.9 16.57 3.18 3.18 31.03 7.19 48.82 7.95 12.67.54 26.51-1.71 35.51-4.71 1.41-.47 2.87.04 3.92 1.1 5.86 5.93 12.18 14.25 18.46 22.92 9.81 13.53 17.94 33.83 22.02 36.78s17.85-6.79 16.42-10.68z"  class="icons_factory_shape icons_factory_ag icons_factory_ag_c" data-index="5" data-color="1" style="-webkit-transform-origin: 0% 0% !important; transform-origin: 0% 0% !important; -ms-transform-origin: 0% 0% !important; -webkit-transform-box: fill-box; transform-box: fill-box;"></path></g><path id="ic_money_money-bag_25-02_1_6"  stroke="#ffffff" stroke-width="8" fill="#e91e63" d="m234.43 225.15c2.11-4.76 14.42.7 13.02 4.54-2.99 8.22-.71 8.44.45 9.38 11.65 8.11 10.29 23.31 8.79 24.32-1.56.91-9.28-.27-12.25-1.64-3.25-1.45-4.11-6.06-4.25-7.66-.18-1.59-2.06-5.98-6.03-7.25-3.96-1.27-8.12 1.11-9.64 7.02-2 7.87 6.4 12.4 11.77 16.21 5.36 4.06 17.61 10.05 16.23 25.06-1.17 15.16-17.59 19.19-20.48 20.17-4.16 1.59-4.66 3.86-4.85 7.2-.25 5.23-14.32 4.12-13.94-1.22.38-5.23-.43-7.86-5.45-9.69-21.8-8.32-14.05-28.81-12.74-29.3 1.3-.91 6.57.35 12.22 2 8.3 2.22.11 14.31 15.56 16.31 4.44.49 9.07-1.96 9.97-8.86.87-6.93-13.17-13.71-16.71-17.5-3.61-3.39-14.48-10.34-8.46-27.85 6.28-17.19 16.81-15.78 19.99-15.78 3.63-.01 4.71-.66 6.8-5.46z"  class="icons_factory_shape icons_factory_ag icons_factory_ag_a" data-index="6" data-color="1"></path></g></g></defs><use xmlns:xlink="http://www.w3.org/1999/xlink" xlink:href="#ic_money_money-bag_25-02_1_code"/></svg>