<svg class="icons_factory" viewBox="0 0 512 512" xmlns="http://www.w3.org/2000/svg" xmlns:xlink="http://www.w3.org/1999/xlink" version="1.1"><image class="icons_factory_fallback_png" src="http://localhost:8888/wordpress-4-6/wp-content/plugins/icons-factory/presets/MY@FLY.png" width="512" height="512" /><defs><g id="ic_communication_mails_39-13_1_bg" transform-origin="50% 50%" transform="matrix(0.9,0,0,0.9,0,0)"><path data-index="-1" d="M256.15 503.06C111.83 505.91-7.13 393.09.33 255.98S75.54 8.23 256.15 8.89C436.76 9.55 513.91 129.2 511.96 255.98 510.02 382.75 400.47 500.21 256.15 503.06z
" /></g><filter id="icons_factory_dst">
      <feTurbulence type="fractalNoise" baseFrequency="0.01" result="noise" seed="2"/>
      <feDisplacementMap in="SourceGraphic" in2="noise" scale="30" />
    </filter><g style="transform-origin: center;" transform-origin="50% 50%" class="icons_factory_base_code" transform="matrix(1.3,0,0,1.3,0,0)" id="ic_communication_mails_39-13_1_code"><g transform-origin="50% 50%" class=" icons_factory_anim_each_zoom_spring icons_factory_anim"><g class="icons_factory_shape icons_factory_ag icons_factory_ag_e" data-index="0" style="-webkit-transform-origin: 100% 100% !important; transform-origin: 100% 100% !important; -ms-transform-origin: 100% 100% !important; -webkit-transform-box: fill-box; transform-box: fill-box;"><path id="ic_communication_mails_39-13_1_1"  fill="#9c27b0" d="m253.77 130.47c.4-2.88 14.24 1.88 15.22 3.9s11.98 24.11 5.97 23.95c-6-.16-22.23-20.33-21.19-27.85z"  class="icons_factory_shape" data-index="1" data-color="2" style="-webkit-transform-origin: 100% 50% !important; transform-origin: 100% 50% !important; -ms-transform-origin: 100% 50% !important; -webkit-transform-box: fill-box; transform-box: fill-box;"></path><path id="ic_communication_mails_39-13_1_2"  fill="#9c27b0" d="m347.34 135.24c.47-2.87-16.61-.05-18.14 1.59s-11.67 26.33-5.9 27.91c5.78 1.59 22.81-22.02 24.04-29.5z"  class="icons_factory_shape" data-index="2" data-color="2" style="-webkit-transform-origin: 0% 50% !important; transform-origin: 0% 50% !important; -ms-transform-origin: 0% 50% !important; -webkit-transform-box: fill-box; transform-box: fill-box;"></path><path id="ic_communication_mails_39-13_1_3"  fill="#FFF" d="m331.71 125.53c-1.93-2.89-57.75-7.36-60.73-4.73s-5.56 41.8-3.52 45.16 58.5 7.67 60.73 4.73 5.45-42.27 3.52-45.16z"  class="icons_factory_shape" data-index="3" data-color="1"></path><path id="ic_communication_mails_39-13_1_4"  fill="#9c27b0" d="m297.43 131.54c-.6.29-22.32-1.36-22.68-1.38s-.66-2.4.17-2.76 22.08.93 22.68 1.38c.6.46.43 2.47-.17 2.76z"  class="icons_factory_shape" data-index="4" data-color="2"></path><path id="ic_communication_mails_39-13_1_5"  fill="#9c27b0" d="m285.9 142.53c-.6.29-11.5-.7-11.86-.72s-.66-2.4.17-2.76 11.26.27 11.86.72.43 2.47-.17 2.76z"  class="icons_factory_shape" data-index="5" data-color="2"></path><path id="ic_communication_mails_39-13_1_6"  fill="#9c27b0" d="m291.22 136.89c-.6.29-16.46-1-16.82-1.03-.36-.02-.66-2.4.17-2.76s16.22.57 16.82 1.03.43 2.47-.17 2.76z"  class="icons_factory_shape" data-index="6" data-color="2"></path><path id="ic_communication_mails_39-13_1_7"  fill="#9c27b0" d="m325.08 164.52c-.83.28-16.08-.98-16.58-1.01s-.98-2.42.17-2.76 15.73.54 16.58 1.01c.85.48.65 2.49-.17 2.76z"  class="icons_factory_shape" data-index="7" data-color="2"></path><path id="ic_communication_mails_39-13_1_8"  fill="#9c27b0" d="m325.5 158.59c-.6.29-16.46-1-16.82-1.03s-.66-2.4.17-2.76 16.22.57 16.82 1.03.43 2.47-.17 2.76z"  class="icons_factory_shape" data-index="8" data-color="2"></path><path id="ic_communication_mails_39-13_1_9"  fill="#9c27b0" d="m326.86 138.29c-.4.33-7.71.08-8.17-.5s-.04-8.08.51-8.44 7.89.09 8.17.5c.29.41-.11 8.11-.51 8.44z"  class="icons_factory_shape" data-index="9" data-color="2"></path></g><g class="icons_factory_shape icons_factory_ag icons_factory_ag_c" data-index="1" style="-webkit-transform-origin: 0% 100% !important; transform-origin: 0% 100% !important; -ms-transform-origin: 0% 100% !important; -webkit-transform-box: fill-box; transform-box: fill-box;"><path id="ic_communication_mails_39-13_1_11"  fill="#9c27b0" d="m112.2 138.49c3.1-3.8 36.46 20.13 34.85 26.11-1.61 5.99-11.21 43.74-22.43 29.69-5.36-6.7-19.7-46.88-12.42-55.8z"  class="icons_factory_shape" data-index="11" data-color="2" style="-webkit-transform-origin: 100% 50% !important; transform-origin: 100% 50% !important; -ms-transform-origin: 100% 50% !important; -webkit-transform-box: fill-box; transform-box: fill-box;"></path><path id="ic_communication_mails_39-13_1_12"  fill="#9c27b0" d="m268.98 193.92c-.03-4.75-40.3-6.81-42.76-1.21-2.46 5.61-18.36 42.45-1.12 37.84 8.23-2.19 43.95-25.49 43.88-36.63z"  class="icons_factory_shape" data-index="12" data-color="2" style="-webkit-transform-origin: 0% 50% !important; transform-origin: 0% 50% !important; -ms-transform-origin: 0% 50% !important; -webkit-transform-box: fill-box; transform-box: fill-box;"></path><path id="ic_communication_mails_39-13_1_13"  fill="#FFF" d="m247.87 174.56c-2.32-5.84-94.78-43.89-101.34-41.15s-30.77 69.94-30.6 77.14c.17 7.16 97.55 42.66 101.34 41.15s32.92-71.29 30.6-77.14z"  class="icons_factory_shape" data-index="13" data-color="1"></path><path id="ic_communication_mails_39-13_1_14"  fill="#9c27b0" d="m185.37 166.74c-1.18.14-37.6-15.02-38.19-15.26s.18-4.37 1.8-4.5 37.41 14.16 38.19 15.26-.62 4.36-1.8 4.5z"  class="icons_factory_shape" data-index="14" data-color="2"></path><path id="ic_communication_mails_39-13_1_15"  fill="#9c27b0" d="m159.57 178.44c-1.18.14-19.38-7.74-19.98-7.98s.18-4.37 1.8-4.5 19.19 6.88 19.98 7.98c.78 1.1-.62 4.36-1.8 4.5z"  class="icons_factory_shape" data-index="15" data-color="2"></path><path id="ic_communication_mails_39-13_1_16"  fill="#9c27b0" d="m171.78 172.1c-1.18.14-27.73-11.08-28.33-11.32s.18-4.37 1.8-4.5 27.54 10.22 28.33 11.32c.78 1.1-.61 4.35-1.8 4.5z"  class="icons_factory_shape" data-index="16" data-color="2"></path><path id="ic_communication_mails_39-13_1_17"  fill="#9c27b0" d="m214.84 239.23c-1.57-.01-27.08-10.82-27.92-11.16-.84-.33-.36-4.58 1.8-4.5 2.16.09 26.72 9.89 27.92 11.16s-.23 4.51-1.8 4.5z"  class="icons_factory_shape" data-index="17" data-color="2"></path><path id="ic_communication_mails_39-13_1_18"  fill="#9c27b0" d="m218.81 229.59c-1.18.14-27.73-12.86-28.33-13.1s.18-4.37 1.8-4.5 27.54 12 28.33 13.1c.78 1.1-.62 4.36-1.8 4.5z"  class="icons_factory_shape" data-index="18" data-color="2"></path><path id="ic_communication_mails_39-13_1_19"  fill="#9c27b0" d="m232.24 194.79c-.87.32-13.29-4.27-13.76-5.5-.47-1.22 4.35-13.48 5.5-13.76s13.5 4.66 13.76 5.5c.25.84-4.64 13.44-5.5 13.76z"  class="icons_factory_shape" data-index="19" data-color="2"></path></g><g class="icons_factory_shape icons_factory_ag icons_factory_ag_a" data-index="2" style="-webkit-transform-origin: 100% 100% !important; transform-origin: 100% 100% !important; -ms-transform-origin: 100% 100% !important; -webkit-transform-box: fill-box; transform-box: fill-box;"><path id="ic_communication_mails_39-13_1_21"  fill="#9c27b0" d="m199.01 293.27c-17.95-16-117.88-44.66-124.34-45.09-6.42-.42-10.17 4.22-9.69 8.1 1.08 8.76 7.02 23.15 32.27 33.42 4.13 12.72 11.54 26.57 29.4 31.68 2.22 12.92 5.64 23.09 22.97 33.07 16.47 9.48 50.08 25.14 63.69 13.3 14.6-12.69 3.66-58.48-14.3-74.48z"  class="icons_factory_shape" data-index="21" data-color="2" style="-webkit-transform-origin: 100% 50% !important; transform-origin: 100% 50% !important; -ms-transform-origin: 100% 50% !important; -webkit-transform-box: fill-box; transform-box: fill-box;"></path><path id="ic_communication_mails_39-13_1_22"  fill="#9c27b0" d="m335.06 268.21c5.53-24.47 78-111.45 82.32-115.36 4.32-3.9 9.48-3.78 11.53-.33 4.64 7.81 8.61 23.29-6.97 47.77 4.49 12.97 6.83 28.96-5.57 44.52 6.29 11.92 9.78 22.36.96 41.55-8.38 18.23-27.85 52.42-47.33 51.5-20.87-.99-40.47-45.18-34.94-69.65z"  class="icons_factory_shape" data-index="22" data-color="2" style="-webkit-transform-origin: 0% 50% !important; transform-origin: 0% 50% !important; -ms-transform-origin: 0% 50% !important; -webkit-transform-box: fill-box; transform-box: fill-box;"></path><path id="ic_communication_mails_39-13_1_23"  fill="#FFF" d="m359.92 193.92c-10.72-2.64-197.63 45.54-203.39 54.5s35.65 146.16 40.52 151.23c4.88 5.08 199.33-47.78 203.39-54.5 4.07-6.71-29.8-148.58-40.52-151.23z"  class="icons_factory_shape" data-index="23" data-color="1"></path><path id="ic_communication_mails_39-13_1_24"  fill="#6a1b9a" d="m254.54 257.83c-1.65 1.52-73.52 20.71-75.48 20.23-1.46-.36-4.62-6.56-2.29-8.55s73.05-20.96 75.48-20.23c2.43.74 3.94 7.03 2.29 8.55z"  class="icons_factory_shape" data-index="24" data-color="3"></path><path id="ic_communication_mails_39-13_1_25"  fill="#6a1b9a" d="m228.58 304.97c-1.65 1.52-37.86 10.49-39.48 10.58-1.23.07-4.62-6.55-2.29-8.53 2.33-1.99 37.05-11.31 39.48-10.58s3.94 7.01 2.29 8.53z"  class="icons_factory_shape" data-index="25" data-color="3"></path><path id="ic_communication_mails_39-13_1_26"  fill="#6a1b9a" d="m239.97 281.49c-1.65 1.53-54.72 15.01-55.98 15-1.23-.01-4.64-6.6-2.3-8.6 2.33-2 53.55-15.74 55.98-15 2.43.75 3.95 7.07 2.3 8.6z"  class="icons_factory_shape" data-index="26" data-color="3"></path><path id="ic_communication_mails_39-13_1_27"  fill="#6a1b9a" d="m370.71 333.39c-1.75 1.8-45.02 12.93-46.42 12.44s-5.09-6.4-2.28-8.51 43.63-13.07 46.42-12.44c2.79.64 4.06 6.68 2.28 8.51z"  class="icons_factory_shape" data-index="27" data-color="3"></path><path id="ic_communication_mails_39-13_1_28"  fill="#6a1b9a" d="m374.92 311.95c-2.04 1.64-54.23 16.12-55.98 15s-4.65-6.66-2.32-8.66c2.33-2.01 53.54-15.75 55.98-15 2.43.75 4.07 7.25 2.32 8.66z"  class="icons_factory_shape" data-index="28" data-color="3"></path><path id="ic_communication_mails_39-13_1_29"  fill="#6a1b9a" d="m357.57 248.53c-.96 1.47-25.08 8.61-27.19 7.28-2.11-1.32-8.71-25.46-7.28-27.19 1.42-1.73 25.84-8.27 27.19-7.28 1.34.99 8.24 25.72 7.28 27.19z"  class="icons_factory_shape" data-index="29" data-color="3"></path></g></g></g></defs><use xmlns:xlink="http://www.w3.org/1999/xlink" class="icons_factory_bg_shape" xlink:href="#ic_communication_mails_39-13_1_bg" fill="#eceff1"  filter="url(#icons_factory_dst)"/><use xmlns:xlink="http://www.w3.org/1999/xlink" xlink:href="#ic_communication_mails_39-13_1_code"/></svg>