<svg class="icons_factory" viewBox="0 0 512 512" xmlns="http://www.w3.org/2000/svg" xmlns:xlink="http://www.w3.org/1999/xlink" version="1.1"><image class="icons_factory_fallback_png" src="http://localhost:8888/wordpress-4-6/wp-content/plugins/icons-factory/presets/MY@BNG.png" width="512" height="512" /><defs><g id="ic_other_bomb_50-40_1_bg" transform-origin="50% 50%" transform="matrix(0.8,0,0,0.8,0,0)"><path data-index="-1" d="m264.7 22.6c68.4 4.5 102.8 33.4 145.8 65.8s56.9 103.8 57.3 115.4c.7 19.7-.7 40.4.4 44.2s6.5 12.3 8.2 12.5 3.9-6.8 5.6-8.1 5.4.8 6.1 2.7c.7 2-5.6 44.1-10 48.1s-20.1 2-22.8 4.4c-2.7 2.3-10.7 21.4-10.1 23.2.7 1.9 6.8 6.3 11.4 7 6.5-.9 15.9-10 17.4-8.6s-5.4 10.4-3.6 16.2c1.9 9.6.3 20.3-6.3 27.7-6.9 7.6-8.1 18.4-14.1 26.5-5.1 7.2-11.7 13.8-19.8 17.5-5.7 1.8-13.9-5.1-13.5-6.3.4-1.3 14.9-3.1 15-4.6s-4.9-5.5-7.4-6-10.5 3.4-15.5 5.7c-7.5 4-22.5 10.1-21.9 13.3s31.2 1.7 32.9 2.1 5.2 3.5 5.3 5.6c.1 2-24 5.8-24.7 6.9-.7 1.2 6.8 11.5 6 13.3-.9 1.8-19.3 6.3-20.7 6.8s-3.9 2.7-3.9 3.4 9.4-.9 9.7 0-13.9 11.4-16.1 12.7-28.9 5-32 5.7c-2.1.3-3.8 2-4.1 4.2-.2 1.5 7.1 2.5 7.1 4.1s-8.9 4.3-10.8 3.4c-2-.9-5.8-11.8-12.7-12.4-5.5.7-15.7 2.9-15.9 3.8s2.5 1.7 2.4 2.5c-.1.9-4 4-5.4 3.5s.2-4.1.2-5.4c-26 4.5-74.2-6.7-77.6-6.1-3.4.7-7.3 8.6-9.9 8.8s-7.2-7.5-9.8-8.3c-2.5-.8-20.2.4-21.1 1.5s.6 8.1-.2 8.4-5.4.3-6.7-.7c-1.4-1-2.1-11-3.5-11.9s-16.8 5.7-17.8 4.8-1.1-8.8-5.3-10.3c-4.9-.5-12.8 1.5-14.6.5-1.9-1-11.2-14.8-6.1-22.8 1.4-3.9 5-11.9 3.1-12.1s-12.8 17.2-22.9 20.6c-6.2 1-8.2-5.4-11.4-9.2-3.2-2.5-8.4-1.7-11-5.1-4.2-5.4-9-10.2-13.4-15.2-9.8-17-16.7-35.5-26.9-52.2-4.8-5.5-9.9-17-9.3-19s7-2.7 7-4.1-5-11.6-5.8-11.7-1.9 4.4-2.4 4.5-4.6-9.9-9.2-13c-6.4-4.1-3-15.5-4.1-18.5s-9.8-4.9-9.2-10.7c-.3-10.9-5-21.5-3.3-32.5.6-5.8-4.1-10.2-4.2-15.8 1.6-4.3 8.9-7.6 9.2-9.5s-.5-15.6-1-17.1-9.8-3.9-9.8-5.2 14.6-4.2 16.3-5.3 3.8-9.5 3.8-14.5c.4-11.8 4.1-23.1 7.1-34.5 1.6-6.1 10.1-41.5 49-74.1s94.5-72.2 181.5-66.5zm207.6 243.4c-2 1.6-8.2 13.1-5.8 14.8 2.4 1.8 11.7-14.3 10.7-15.7-.9-1.4-2.9-.6-4.9.9zm-34.4 76.1c-2 .9-.8 6.7-1.6 8.5s-19.1 19-19.4 21.4 3.3 7.4 4.9 7.8 13.6-9 14.6-7.3c1.1 1.7-10.4 13.9-10.1 15.2.4 1.4 6.5-.4 9.9-1.1 4 .3 11.2 1.2 12.2.3s-4.4-3.7-4.4-5.4 7.5-2.5 10.2-5.5c1.5-4.9-.1-10.6 3.5-14.8 2.6-3 2.3-9.3 1.4-10.4-.9-1.2-19.3-9.6-21.2-8.7zm-389.8 8.1c-2.8.9 9.4 15.2 9.9 14.7s-7.1-15.6-9.9-14.7zm344.8 51.9c.2 1.3 3.5 2.6 4.9 2.6s10.1-12.5 8.9-13-14 9.1-13.8 10.4zm48.3-5c2.5 2.5 7.6-1.6 4.9-4.4-2.6-2.5-7.7 1.6-4.9 4.4zm-66.4 18.8c-1.6 1.1-7.9 22.5-13.5 32.9 8 2.5 22.2-2.4 22.9-3.3.8-1.2.9-2.6.4-4-.6-1-9.5-3.1-9.7-4.2s25.2-9.1 24.9-10.3-16.9.3-18-.7 1.1-7.2 0-8.5-5.5-3-7-1.9zm14.6 22.2c-.8.8 8.4 8.7 9.1 7 .7-1.6-8.3-7.7-9.1-7zm-224.5 11.1c-1.3 3 3.6 6.1 6.1 4.2 1.1-3-3.7-6.2-6.1-4.2zm163.3 23.2c11.6-.5 21.8-7.7 32.9-10.2 4.7.4 13.7-1 13.3-2.4s-15-7.1-17.1-6.8c-2 .2-18.8 13.8-29.1 19.4zm-309.4-266.6c-.1-1.6-3.2-4.3-4.3-4s-2.4 9-1.4 9.6 5.9-4 5.7-5.6zm464.2 14.5c-1.9 3.5-6.2 7.1-3.6 11.4 3.2 8.5 18.8 15.4 20.2 14.5s1.9-5.3.7-7.4-7.8-7.3-7.7-12.7c1.7-7 7.4-19 6-20.7-1.5-1.7-8.8-3.6-11.2-2-2.6 1.8-.8 12.1-4.4 16.9zm20.9 8.7c4.7-5.3-7-5-5.6-.7s3.2 2.4 5.6.7zm-27 18.4c1.7 0 2.3-3.6 3.3-5.6.6-4-5.7-5.4-6.6-3.8-1 1.6 1.6 9.3 3.3 9.4zm16.4 48.7c1.4-1.7-1.5-9.8-4.3-10.7-2.8-1-6.4 8.2-5.2 10.2s8.2 2.2 9.5.5zm-23 29.2c4.9-4.2 6.2-15.9 4.5-17s-14.4 5.4-13.2 13c-.6 4.6 5.4 7.1 8.7 4zm20.2-9c2-2-.7-6.3-1.8-7.5s-5.5 1-6 3c-.4 2.1 5.8 6.5 7.8 4.5zm-10 11.4c-1.6-1.9-4.7 1.6-3.4 3.1 1.3 1.6 5-1.2 3.4-3.1zm-31.1 48.2c1.3 0 3.2-6.1 2.4-8s-3.5-4.2-4.5-3.5c-.9.7.8 11.4 2.1 11.5zm-295.8 106.7c1.2-1.7-12.7-13.1-13.3-11.6s12.1 13.3 13.3 11.6zm84 8.5c.9-2.1-12.1-9.2-13-8.3s12.1 10.4 13 8.3zm90 3.8c1.3-.4 4.5-3.3 3.6-4.4s-20.5-4.6-21.7-3.7 16.7 8.6 18.1 8.1zm-63.5 9.1c.6-.3 6.1-10.4 5.4-11.8-.8-1.4-14.2-3-14.7-2-.7 1.1 8.7 14.1 9.3 13.8zm15.9-4.6c2.6-3.3-3.3-5.6-5-2.5-2.6 3.2 3.3 5.6 5 2.5z
" /></g><g style="transform-origin: center;" transform-origin="50% 50%" class="icons_factory_base_code" transform="matrix(0.95,0,0,0.95,0,-46.08)" id="ic_other_bomb_50-40_1_code"><g transform-origin="50% 50%" class=""><path id="ic_other_bomb_50-40_1_0"  fill="#000000" d="m327.6 189.3c5.9-9.9 22.7-38.9 4.1-62.1-8-10-16.6-11.7-26.6-13.8-13.1-2.7-28.6-5.4-40.1-28.5-2.9-5.9 5.2-11.2 8.9-4.8 10.5 18.3 20.7 20.8 33.2 23.4 10.4 2.1 22.2 4.5 32.5 17.4 23 28.7 2.9 63.2-3.3 73.6-4.6 7.3-13 2.1-8.7-5.2z"  class="icons_factory_shape icons_factory_ag icons_factory_ag_c" data-index="0" data-color="1" style="-webkit-transform-origin: 50% 100% !important; transform-origin: 50% 100% !important; -ms-transform-origin: 50% 100% !important; -webkit-transform-box: fill-box; transform-box: fill-box;"></path><path id="ic_other_bomb_50-40_1_1"  fill="#000000" d="m345.9 229.1c-2.6-6.5 1.3-11.1 1.3-11.1 4.6-6.6 4.5-12.5-2-17.1l-23.7-16.6c-6.6-4.6-12.5-6.1-17.1.5 0 0-5.4 6.8-10.7 8.3s-31.7-7.4-70.8 3.8c-38.4 11-84.4 43.9-81.6 106 2.6 57.2 51.2 116.6 114 112.5 79.6-5.3 114.2-50.2 114-112.5-.1-35.9-20.8-67.3-23.4-73.8z"  class="icons_factory_shape icons_factory_ag icons_factory_ag_a" data-index="1" data-color="3"></path><path id="ic_other_bomb_50-40_1_2"  fill="#000000" d="m249.8 44c2 2.9 15.3 23.4 16 26.5s-5.8 6.1-7.6 4.3c-2.8-2.8-16.1-24.4-18.1-27.6-2.1-3.4 6.4-8.1 9.7-3.2zm-4.2 61.8c3.1-2.2 13.6-9.9 16.2-12.9 1.7-1.9-1.8-8.5-4.8-7.6s-13.2 8.8-16 11c-4.6 3.6 1.4 11.8 4.6 9.5zm-7.4-22c2 .3 10.6 0 12.7-.5 1.8-.4 2.5-9.3-1.3-9.3-3.2 0-7.9 0-11.5-.1-4.9-.1-3.8 9.3.1 9.9zm29.9-32.1c-.3 2-.4 9.8-.2 12 .3 3.6 8.6 4.5 9.1.7.5-3.1.8-8.4.9-11.9.1-5.1-9.2-4.8-9.8-.8zm-5.1 51.2c-.3 2-.4 6.4-.2 8.6.3 3.6 8.1 4.4 9.1.7.3-1 .7-4.2.9-8.6.2-5-9.1-4.6-9.8-.7zm19.6-23.3c3.1-2.1 13.6-8.7 16.3-11.5 1.7-1.8-1.4-8.6-4.4-7.8-3.1.8-13.6 8.2-16.4 10.3-4.8 3.3 1.2 11.2 4.5 9z"  class="icons_factory_shape icons_factory_ag icons_factory_ag_e" data-index="2" data-color="3"></path></g></g></defs><use xmlns:xlink="http://www.w3.org/1999/xlink" class="icons_factory_bg_shape" xlink:href="#ic_other_bomb_50-40_1_bg" fill="#00ff84"  /><use xmlns:xlink="http://www.w3.org/1999/xlink" xlink:href="#ic_other_bomb_50-40_1_code"/></svg>