<svg class="icons_factory" viewBox="0 0 512 512" xmlns="http://www.w3.org/2000/svg" xmlns:xlink="http://www.w3.org/1999/xlink" version="1.1"><image class="icons_factory_fallback_png" src="http://localhost:8888/wordpress-4-6/wp-content/plugins/icons-factory/presets/BASE@BW.png" width="512" height="512" /><defs><g style="transform-origin: center;" transform-origin="50% 50%" class="icons_factory_base_code" transform="matrix(1.2,0,0,1.2,0,0)" id="ic_data_business-bag_26-57_1_code"><g transform-origin="50% 50%" class=""><g class="icons_factory_shape icons_factory_ag icons_factory_ag_a" data-index="0"><path id="ic_data_business-bag_26-57_1_1"  stroke="#212121" stroke-width="2" fill="#fff" d="m120.71 164.28c12.61-8.55 266.09-13.06 274.79-.29s10.44 183.07-.58 190.61-263.77 11.9-274.21-1.45c-10.45-13.35-17.12-177.27 0-188.87z"  class="icons_factory_shape" data-index="1" data-color="1"></path><path id="ic_data_business-bag_26-57_1_2"  stroke="#212121" stroke-width="2" fill="#fff" d="m168.14 264.67c-8.57-.93-7.83-11.54-.36-13.17 11.29-2.46 179.16-2.4 184.75-1.96 6.64.52 8.27 12.63-.28 13.81-7.36 1.02-178.2 1.96-184.11 1.32z"  class="icons_factory_shape" data-index="2" data-color="2"></path><path id="ic_data_business-bag_26-57_1_3"  stroke="#212121" stroke-width="2" fill="#fff" d="m167.69 220.53c-8.57-.93-7.83-11.54-.36-13.17 11.29-2.46 179.16-2.4 184.75-1.96 6.64.52 8.27 12.63-.28 13.81-7.36 1.02-178.19 1.96-184.11 1.32z"  class="icons_factory_shape" data-index="3" data-color="2"></path><path id="ic_data_business-bag_26-57_1_4"  stroke="#212121" stroke-width="2" fill="#fff" d="m168.59 308.81c-8.57-.93-7.83-11.54-.36-13.17 11.29-2.46 179.16-2.4 184.75-1.96 6.64.52 8.27 12.63-.28 13.81-7.37 1.02-178.2 1.96-184.11 1.32z"  class="icons_factory_shape" data-index="4" data-color="2"></path></g><g class="icons_factory_shape icons_factory_ag icons_factory_ag_c" data-index="1"><path id="ic_data_business-bag_26-57_1_6"  stroke="#212121" stroke-width="2" fill="#fff" d="m367.94 154.99c-3.06 1.78-2.61 28.14 2.32 32.78s30.75 7.25 32.78 5.8.87-24.66-5.8-32.49-25.82-8.12-29.3-6.09z"  class="icons_factory_shape" data-index="6" data-color="3"></path><path id="ic_data_business-bag_26-57_1_7"  stroke="#212121" stroke-width="2" fill="#fff" d="m384.44 168.64c3.95 0 6.37 2.5 6.4 5.88s-2.27 6.65-6.08 6.48-6.6-3.24-6.6-6.51c-.01-3.26 2.07-5.85 6.28-5.85z"  class="icons_factory_shape" data-index="7" data-color="4"></path></g><g class="icons_factory_shape icons_factory_ag icons_factory_ag_c" data-index="2"><path id="ic_data_business-bag_26-57_1_9"  stroke="#212121" stroke-width="2" fill="#fff" d="m144.06 158.47c3.06 1.78 2.61 28.14-2.32 32.78s-30.75 7.25-32.78 5.8-.87-24.66 5.8-32.49 25.82-8.12 29.3-6.09z"  class="icons_factory_shape" data-index="9" data-color="3"></path><path id="ic_data_business-bag_26-57_1_10"  stroke="#212121" stroke-width="2" fill="#fff" d="m127.56 172.13c-3.95 0-6.37 2.5-6.4 5.88s2.27 6.65 6.08 6.48 6.6-3.24 6.6-6.51c.01-3.27-2.07-5.85-6.28-5.85z"  class="icons_factory_shape" data-index="10" data-color="4"></path></g><g class="icons_factory_shape icons_factory_ag icons_factory_ag_c" data-index="3"><path id="ic_data_business-bag_26-57_1_12"  stroke="#212121" stroke-width="2" fill="#fff" d="m367.94 361.19c-3.06-1.78-2.61-28.14 2.32-32.78s30.75-7.25 32.78-5.8.87 24.66-5.8 32.49-25.82 8.12-29.3 6.09z"  class="icons_factory_shape" data-index="12" data-color="3"></path><path id="ic_data_business-bag_26-57_1_13"  stroke="#212121" stroke-width="2" fill="#fff" d="m384.44 347.53c3.95 0 6.37-2.5 6.4-5.88s-2.27-6.65-6.08-6.48-6.6 3.24-6.6 6.51 2.07 5.85 6.28 5.85z"  class="icons_factory_shape" data-index="13" data-color="4"></path></g><g class="icons_factory_shape icons_factory_ag icons_factory_ag_c" data-index="4"><path id="ic_data_business-bag_26-57_1_15"  stroke="#212121" stroke-width="2" fill="#fff" d="m144.06 357.7c3.06-1.78 2.61-28.14-2.32-32.78s-30.75-7.25-32.78-5.8-.87 24.66 5.8 32.49c6.67 7.84 25.82 8.13 29.3 6.09z"  class="icons_factory_shape" data-index="15" data-color="3"></path><path id="ic_data_business-bag_26-57_1_16"  stroke="#212121" stroke-width="2" fill="#fff" d="m127.56 344.05c-3.95 0-6.37-2.5-6.4-5.88s2.27-6.65 6.08-6.48 6.6 3.24 6.6 6.51c.01 3.27-2.07 5.85-6.28 5.85z"  class="icons_factory_shape" data-index="16" data-color="4"></path></g><g class="icons_factory_shape icons_factory_ag icons_factory_ag_e" data-index="5"><path id="ic_data_business-bag_26-57_1_18"  stroke="#212121" stroke-width="2" fill="#fff" d="m213.25 148.58c.09 3.18 12.65 5.09 12.65 0s-.97-13.91 3.69-17.09c4.67-3.18 53.82-4.77 57.64.21s3.37 14.86 3.37 17.51 12.49 3.38 12.76-.85c.32-4.98 1.29-23.63-7.51-30.21-8.35-6.24-65.77-7.08-75.42.66-7.73 6.22-7.39 22.56-7.18 29.77z"  class="icons_factory_shape" data-index="18" data-color="1" style="-webkit-transform-origin: 50% 100% !important; transform-origin: 50% 100% !important; -ms-transform-origin: 50% 100% !important; -webkit-transform-box: fill-box; transform-box: fill-box;"></path><path id="ic_data_business-bag_26-57_1_19"  stroke="#212121" stroke-width="2" fill="#fff" d="m203.07 161.2c-1.38-2.04 3.07-11.13 6.04-13.04s18.24-1.91 20.25-.11 6.29 10.95 5.2 12.83c-1.1 1.88-30.1 2.36-31.49.32z"  class="icons_factory_shape" data-index="19" data-color="3"></path><path id="ic_data_business-bag_26-57_1_20"  stroke="#212121" stroke-width="2" fill="#fff" d="m313.44 161.2c1.08-1.76-3.07-11.13-6.04-13.04s-18.24-1.91-20.25-.11-5.92 10.88-5.2 12.83 30.41 2.08 31.49.32z"  class="icons_factory_shape" data-index="20" data-color="3"></path></g></g></g><g transform-origin="50% 50%" class="icons_factory_base_code " transform="matrix(1.2,0,0,1.2,0,0)" id="ic_data_business-bag_26-57_1_raw-clone"><path d="m120.71 164.28c12.61-8.55 266.09-13.06 274.79-.29s10.44 183.07-.58 190.61-263.77 11.9-274.21-1.45c-10.45-13.35-17.12-177.27 0-188.87z"  class="icons_factory_shape"/><path d="m168.14 264.67c-8.57-.93-7.83-11.54-.36-13.17 11.29-2.46 179.16-2.4 184.75-1.96 6.64.52 8.27 12.63-.28 13.81-7.36 1.02-178.2 1.96-184.11 1.32z"  class="icons_factory_shape"/><path d="m167.69 220.53c-8.57-.93-7.83-11.54-.36-13.17 11.29-2.46 179.16-2.4 184.75-1.96 6.64.52 8.27 12.63-.28 13.81-7.36 1.02-178.19 1.96-184.11 1.32z"  class="icons_factory_shape"/><path d="m168.59 308.81c-8.57-.93-7.83-11.54-.36-13.17 11.29-2.46 179.16-2.4 184.75-1.96 6.64.52 8.27 12.63-.28 13.81-7.37 1.02-178.2 1.96-184.11 1.32z"  class="icons_factory_shape"/><path d="m367.94 154.99c-3.06 1.78-2.61 28.14 2.32 32.78s30.75 7.25 32.78 5.8.87-24.66-5.8-32.49-25.82-8.12-29.3-6.09z"  class="icons_factory_shape"/><path d="m384.44 168.64c3.95 0 6.37 2.5 6.4 5.88s-2.27 6.65-6.08 6.48-6.6-3.24-6.6-6.51c-.01-3.26 2.07-5.85 6.28-5.85z"  class="icons_factory_shape"/><path d="m144.06 158.47c3.06 1.78 2.61 28.14-2.32 32.78s-30.75 7.25-32.78 5.8-.87-24.66 5.8-32.49 25.82-8.12 29.3-6.09z"  class="icons_factory_shape"/><path d="m127.56 172.13c-3.95 0-6.37 2.5-6.4 5.88s2.27 6.65 6.08 6.48 6.6-3.24 6.6-6.51c.01-3.27-2.07-5.85-6.28-5.85z"  class="icons_factory_shape"/><path d="m367.94 361.19c-3.06-1.78-2.61-28.14 2.32-32.78s30.75-7.25 32.78-5.8.87 24.66-5.8 32.49-25.82 8.12-29.3 6.09z"  class="icons_factory_shape"/><path d="m384.44 347.53c3.95 0 6.37-2.5 6.4-5.88s-2.27-6.65-6.08-6.48-6.6 3.24-6.6 6.51 2.07 5.85 6.28 5.85z"  class="icons_factory_shape"/><path d="m144.06 357.7c3.06-1.78 2.61-28.14-2.32-32.78s-30.75-7.25-32.78-5.8-.87 24.66 5.8 32.49c6.67 7.84 25.82 8.13 29.3 6.09z"  class="icons_factory_shape"/><path d="m127.56 344.05c-3.95 0-6.37-2.5-6.4-5.88s2.27-6.65 6.08-6.48 6.6 3.24 6.6 6.51c.01 3.27-2.07 5.85-6.28 5.85z"  class="icons_factory_shape"/><path d="m213.25 148.58c.09 3.18 12.65 5.09 12.65 0s-.97-13.91 3.69-17.09c4.67-3.18 53.82-4.77 57.64.21s3.37 14.86 3.37 17.51 12.49 3.38 12.76-.85c.32-4.98 1.29-23.63-7.51-30.21-8.35-6.24-65.77-7.08-75.42.66-7.73 6.22-7.39 22.56-7.18 29.77z"  class="icons_factory_shape" style="-webkit-transform-origin: 50% 100% !important; transform-origin: 50% 100% !important; -ms-transform-origin: 50% 100% !important; -webkit-transform-box: fill-box; transform-box: fill-box;"/><path d="m203.07 161.2c-1.38-2.04 3.07-11.13 6.04-13.04s18.24-1.91 20.25-.11 6.29 10.95 5.2 12.83c-1.1 1.88-30.1 2.36-31.49.32z"  class="icons_factory_shape"/><path d="m313.44 161.2c1.08-1.76-3.07-11.13-6.04-13.04s-18.24-1.91-20.25-.11-5.92 10.88-5.2 12.83 30.41 2.08 31.49.32z"  class="icons_factory_shape"/></g></defs><use xmlns:xlink="http://www.w3.org/1999/xlink" class="icons_factory_fx_sticker" xlink:href="#ic_data_business-bag_26-57_1_raw-clone" fill="#212121" stroke="#212121" stroke-width="16" stroke-linecap="round" stroke-linejoin="round" /><use xmlns:xlink="http://www.w3.org/1999/xlink" xlink:href="#ic_data_business-bag_26-57_1_code"/></svg>