<svg class="icons_factory" viewBox="0 0 512 512"
			style="width:100%;"
			xmlns="http://www.w3.org/2000/svg" xmlns:xlink="http://www.w3.org/1999/xlink" version="1.1"><image class="icons_factory_fallback_png" src="http://localhost:8888/wordpress-4-6/wp-content/plugins/icons-factory/presets/MY@SPR.png" width="512" height="512" /><defs><g id="ic_people-24_19-02_1_bg" transform-origin="50% 50%" transform="matrix(0.8,0,0,0.8,0,0)"><path data-index="-1" d="m100.45 457.82c69 41.14 155.61 36.33 228.73 9.31 59.56-22 127.51-49.5 160.9-107 26.51-45.6 27.52-96.13 10.82-144.92-28.79-84.21-120.52-192.08-217.5-191.27-74.68.63-142.46 44.39-191.61 97.74-44.69 48.51-95.41 124.53-91.59 193.72 3.26 58.87 46.44 110.33 100.25 142.42z
" /></g><g style="transform-origin: center;" transform-origin="50% 50%" class="icons_factory_base_code" transform="matrix(1.27,0,0,1.27,10.24,-10.24)" id="ic_people-24_19-02_1_code"><g transform-origin="50% 50%" class=""><g class="icons_factory_shape icons_factory_ag icons_factory_ag_a" data-index="0"><path id="ic_people-24_19-02_1_1"  stroke="#000000" stroke-width="2" fill="#7b1fa2" d="m324.08 327.59c3.35 4.18 17.58 24.9 20.51 29.09 4.6 6.49 5.86 13.18 1 18.83-4.6 5.65-11.3 6.07-16.95 2.72s-15.64-20.3-15.64-20.3z"  class="icons_factory_shape" data-index="1" data-color="4"></path><path id="ic_people-24_19-02_1_2"  stroke="#000000" stroke-width="2" fill="#e91e63" d="m325.12 337c4.39 5.44 14.44 21.13 17.79 26.37 2.72 4.18 3.56 10.88-3.56 14.44s-14-2.09-17.16-6.91c-3.35-4.6-13.6-20.51-13.6-20.51z"  class="icons_factory_shape" data-index="2" data-color="3"></path><path id="ic_people-24_19-02_1_3"  stroke="#000000" stroke-width="2" fill="#7b1fa2" d="m190.16 311.27c-1 10.88-4.18 23.65 1 43.31s10 43.94 16.11 49.59c5.44 5.23 15.9 6.91 27.2 1.88s28.67-14 37-14.86 38.92-10 38.92-10-8-33.9-14.44-33.69-58.59 16.11-58.59 16.11l-8.58-46z"  class="icons_factory_shape" data-index="3" data-color="4"></path><path id="ic_people-24_19-02_1_4"  stroke="#000000" stroke-width="2" fill="#7b1fa2" d="m211.92 325.29s6.49 31.6 10.67 36.41 14.86 5.44 15.9 9 27 47.5 33.9 52.52c8.79 6.49 25.95 6.28 31-2.93 4.6-8.79 6.07-29.92 11.72-41.43s11.72-15.9 15.07-20.09c5.44-6.91 2.09-36.62-13-39.13s-17.18 10.88-20.72 17.16-9.83 18.62-9.83 18.62-11.52-27.42-15.7-37.42a127.4 127.4 0 0 0 -9.83-18.62z"  class="icons_factory_shape" data-index="4" data-color="4"></path><path id="ic_people-24_19-02_1_5"  stroke="#000000" stroke-width="2" fill="#ffffff" d="m192.46 104.74c1.67 0 13.39 1.67 17.79-1.46 2.51-1.67 3.14-6.07 3.14-8.16.21-2.09-1-9-5-10.25-3.77-1.26-12.55-.42-16.74 2.51-3.35 2.3-4.18 4.18-6.91 7.11-2.72 2.72-5.23 5-6.91 8.79-2.72 5.44-6.7 21.76-11.93 29.5-5.44 8.16-1.26 14 3.35 19.67s23.44 23.23 24.27 25.53 33.9-3.35 30.34-10c-3.35-6.7-12.55-9.63-16.95-10.88s-6.07-2.09-8.37-5.23a33.17 33.17 0 0 0 -7.74-8 51.44 51.44 0 0 1 -6.07-4.18s5.65-9.42 6.28-18.41c.82-9 1.45-16.54 1.45-16.54z"  class="icons_factory_shape" data-index="5" data-color="1"></path><path id="ic_people-24_19-02_1_6"  stroke="#000000" stroke-width="2" fill="#e91e63" d="m232.22 174s-5.44-6.91-11.09-10.46a57.17 57.17 0 0 0 -10.46-5.23 71.91 71.91 0 0 0 -8.79 8.16 128.87 128.87 0 0 0 -9 11.3s-7.11 13.6-6.07 32.85 7.53 48.13 6.07 59.22-3.77 38.5-3.77 43.11c-.21 4.6 12.14 17.37 32 16.95 19.67-.42 46.24-9.21 46.66-19.25s-5.23-10-5.65-19.67c-.63-9.63 2.09-42.69 16.53-61.31 10.46-13.6 9-15.07 16.95-19.67 7.74-4.6-.21-28-8-28.67s-24.27-1-32 0c-7.48 1.05-23.38-7.33-23.38-7.33z"  class="icons_factory_shape" data-index="6" data-color="3"></path><path id="ic_people-24_19-02_1_7"  stroke="#000000" stroke-width="2" fill="#ffffff" d="m313.4 178.19s-2.51-6.7-4-19.25c-1.46-12.35-1-17.16-4.39-20.3s-9-2.93-10-5.44-4.6-3.56-6.07-6.49c-1.67-3.14-1.46-7.11 1.46-9s9.42-4.81 12.14-3.35c2.72 1.26 3.77 2.72 5.44 4.39 2.09 2.3 3.77 6.28 7.11 11.93s16.31 34.96 19.66 42.32 5.86 15.28 0 21.76-15.28 4.18-23 6.91c-7.74 2.93-15.07 8.79-18.41 8.79s-13.6-3.56-14.44-16.95 9.6-11.76 11.7-11.51 2.93.42 8-1.88 14.8-1.93 14.8-1.93z"  class="icons_factory_shape" data-index="7" data-color="1"></path><path id="ic_people-24_19-02_1_8"  stroke="#000000" stroke-width="2" fill="#ffffff" d="m255 175.47c1-1.67 8-8.16 11.09-9 3.14-.63 6.28-1 9.21-4 3.56-3.56 1.46-6.07 1.46-6.07s6.91-7.32 4.6-19.25c-2.27-12.32-21.36-24.25-36.36-13.15-5.86 4.39-19.88 26.57-18.83 31.6 1 4.81 3.35 5.86 1.88 8.58s-2.93 10.46-4.18 11.3c-1 .63-14.65 13 2.09 20.51 18 8 25.53-5.65 28.88-8.79a66 66 0 0 1 6.49-5.65s-9.65-.43-6.33-6.08z"  class="icons_factory_shape" data-index="8" data-color="1"></path><path id="ic_people-24_19-02_1_9"  stroke="#000000" stroke-width="2" fill="#7b1fa2" d="m281.39 137.18c-1.67-8.79-11.93-17.58-23.23-17.58a32.68 32.68 0 0 0 3.77 4.39c5.65 4.81 8.79 2.3 10.88 8.79s-7.32 21.34-7.32 21.34l2.51 1.68s6.07-3.14 8.79.63a23.42 23.42 0 0 0 4.6-19.25z"  class="icons_factory_shape" data-index="9" data-color="4"></path></g></g></g><g transform-origin="50% 50%" class="icons_factory_base_code " transform="matrix(1.27,0,0,1.27,10.24,-10.24)" id="ic_people-24_19-02_1_raw-clone"><path d="m324.08 327.59c3.35 4.18 17.58 24.9 20.51 29.09 4.6 6.49 5.86 13.18 1 18.83-4.6 5.65-11.3 6.07-16.95 2.72s-15.64-20.3-15.64-20.3z"  class="icons_factory_shape"/><path d="m325.12 337c4.39 5.44 14.44 21.13 17.79 26.37 2.72 4.18 3.56 10.88-3.56 14.44s-14-2.09-17.16-6.91c-3.35-4.6-13.6-20.51-13.6-20.51z"  class="icons_factory_shape"/><path d="m190.16 311.27c-1 10.88-4.18 23.65 1 43.31s10 43.94 16.11 49.59c5.44 5.23 15.9 6.91 27.2 1.88s28.67-14 37-14.86 38.92-10 38.92-10-8-33.9-14.44-33.69-58.59 16.11-58.59 16.11l-8.58-46z"  class="icons_factory_shape"/><path d="m211.92 325.29s6.49 31.6 10.67 36.41 14.86 5.44 15.9 9 27 47.5 33.9 52.52c8.79 6.49 25.95 6.28 31-2.93 4.6-8.79 6.07-29.92 11.72-41.43s11.72-15.9 15.07-20.09c5.44-6.91 2.09-36.62-13-39.13s-17.18 10.88-20.72 17.16-9.83 18.62-9.83 18.62-11.52-27.42-15.7-37.42a127.4 127.4 0 0 0 -9.83-18.62z"  class="icons_factory_shape"/><path d="m192.46 104.74c1.67 0 13.39 1.67 17.79-1.46 2.51-1.67 3.14-6.07 3.14-8.16.21-2.09-1-9-5-10.25-3.77-1.26-12.55-.42-16.74 2.51-3.35 2.3-4.18 4.18-6.91 7.11-2.72 2.72-5.23 5-6.91 8.79-2.72 5.44-6.7 21.76-11.93 29.5-5.44 8.16-1.26 14 3.35 19.67s23.44 23.23 24.27 25.53 33.9-3.35 30.34-10c-3.35-6.7-12.55-9.63-16.95-10.88s-6.07-2.09-8.37-5.23a33.17 33.17 0 0 0 -7.74-8 51.44 51.44 0 0 1 -6.07-4.18s5.65-9.42 6.28-18.41c.82-9 1.45-16.54 1.45-16.54z"  class="icons_factory_shape"/><path d="m232.22 174s-5.44-6.91-11.09-10.46a57.17 57.17 0 0 0 -10.46-5.23 71.91 71.91 0 0 0 -8.79 8.16 128.87 128.87 0 0 0 -9 11.3s-7.11 13.6-6.07 32.85 7.53 48.13 6.07 59.22-3.77 38.5-3.77 43.11c-.21 4.6 12.14 17.37 32 16.95 19.67-.42 46.24-9.21 46.66-19.25s-5.23-10-5.65-19.67c-.63-9.63 2.09-42.69 16.53-61.31 10.46-13.6 9-15.07 16.95-19.67 7.74-4.6-.21-28-8-28.67s-24.27-1-32 0c-7.48 1.05-23.38-7.33-23.38-7.33z"  class="icons_factory_shape"/><path d="m313.4 178.19s-2.51-6.7-4-19.25c-1.46-12.35-1-17.16-4.39-20.3s-9-2.93-10-5.44-4.6-3.56-6.07-6.49c-1.67-3.14-1.46-7.11 1.46-9s9.42-4.81 12.14-3.35c2.72 1.26 3.77 2.72 5.44 4.39 2.09 2.3 3.77 6.28 7.11 11.93s16.31 34.96 19.66 42.32 5.86 15.28 0 21.76-15.28 4.18-23 6.91c-7.74 2.93-15.07 8.79-18.41 8.79s-13.6-3.56-14.44-16.95 9.6-11.76 11.7-11.51 2.93.42 8-1.88 14.8-1.93 14.8-1.93z"  class="icons_factory_shape"/><path d="m255 175.47c1-1.67 8-8.16 11.09-9 3.14-.63 6.28-1 9.21-4 3.56-3.56 1.46-6.07 1.46-6.07s6.91-7.32 4.6-19.25c-2.27-12.32-21.36-24.25-36.36-13.15-5.86 4.39-19.88 26.57-18.83 31.6 1 4.81 3.35 5.86 1.88 8.58s-2.93 10.46-4.18 11.3c-1 .63-14.65 13 2.09 20.51 18 8 25.53-5.65 28.88-8.79a66 66 0 0 1 6.49-5.65s-9.65-.43-6.33-6.08z"  class="icons_factory_shape"/><path d="m281.39 137.18c-1.67-8.79-11.93-17.58-23.23-17.58a32.68 32.68 0 0 0 3.77 4.39c5.65 4.81 8.79 2.3 10.88 8.79s-7.32 21.34-7.32 21.34l2.51 1.68s6.07-3.14 8.79.63a23.42 23.42 0 0 0 4.6-19.25z"  class="icons_factory_shape"/></g></defs><use xmlns:xlink="http://www.w3.org/1999/xlink" class="icons_factory_bg_shape" xlink:href="#ic_people-24_19-02_1_bg" fill="#ffb300"  /><use xmlns:xlink="http://www.w3.org/1999/xlink" class="icons_factory_fx_sticker" xlink:href="#ic_people-24_19-02_1_raw-clone" fill="#ffffff" stroke="#ffffff" stroke-width="16" stroke-linecap="round" stroke-linejoin="round" /><use xmlns:xlink="http://www.w3.org/1999/xlink" xlink:href="#ic_people-24_19-02_1_code"/></svg>