<svg class="icons_factory" viewBox="0 0 512 512" xmlns="http://www.w3.org/2000/svg" xmlns:xlink="http://www.w3.org/1999/xlink" version="1.1"><image class="icons_factory_fallback_png" src="http://localhost:8888/wordpress-4-6/wp-content/plugins/icons-factory/presets/MY@AWW.png" width="512" height="512" /><defs><radialGradient id="ic_time_award-five-years_52-53_1_grad">
    <stop offset="20%" stop-color="rgba(255,179,0,1)"/>
    <stop offset="80%" stop-color="rgba(255,179,0,0.1)"/>
    <stop offset="100%" stop-color="rgba(255,179,0,0)"/>
    </radialGradient><g id="ic_time_award-five-years_52-53_1_btm_shadow" class="icons_factory_cast_shadow"><ellipse cx="256" cy="460" rx="160" ry="20" fill="url(#ic_time_award-five-years_52-53_1_grad)"></ellipse></g><g style="transform-origin: center;" transform-origin="50% 50%" class="icons_factory_base_code" transform="matrix(1,0,0,1,0,-15.36)" id="ic_time_award-five-years_52-53_1_code"><g transform-origin="50% 50%" class=""><path id="ic_time_award-five-years_52-53_1_0"  fill="#ffffff" d="m241.96 131.23c-2.59 2.35-10.88 45.95-7.87 49.52 3.01 3.58 8.02 4.37 22.29 3.08 9.18-.83 23.6 4.59 22.65 17.39-1 13.45-12.17 16.95-18.32 16.89-14.46-.14-18.32-9.02-23.04-7.73s-10.31 9.45-10.16 12.74c.14 3.29 14.03 13.39 30.06 13.74 19.61.43 40.08-11.88 41.22-34.5 1.15-22.61-10.6-37.93-33.35-37.21-4.58.14-9.56.23-10.45-1.61-1.04-2.15 1.23-12.14 4.19-14.28 2.72-1.97 29.16-.43 32.31-2.58s5.44-14.03 2.58-16.32c-2.87-2.28-47.53-3.28-52.11.87z"  class="icons_factory_shape icons_factory_ag icons_factory_ag_c" data-index="0" data-color="1" style="-webkit-transform-origin: 50% 0% !important; transform-origin: 50% 0% !important; -ms-transform-origin: 50% 0% !important; -webkit-transform-box: fill-box; transform-box: fill-box;"></path><path id="ic_time_award-five-years_52-53_1_1"  fill="#000000" d="m424.43 258.58c-7.06-3.86-15.78-3.8-22.9.36-1.26.74-2.83-.29-2.69-1.74.42-4.43.64-8.91.64-13.44 0-10.44-1.16-20.75-3.41-30.79-.27-1.21.71-2.35 1.95-2.21 8 .87 16.27-2.44 21.39-9.45 5.98-8.18 5.89-18.9.58-26.8-9.13-2.67-19.38.49-25.36 8.67-1.26 1.72-2.24 3.55-2.97 5.45-.59 1.54-2.72 1.58-3.37.07-2.18-5.12-4.68-10.12-7.47-14.98-.23-.41-.29-.88-.18-1.33 2.02-8.29-.52-18.32-7.53-26.24-8.15-9.21-19.87-12.78-29.17-9.79-4.09 8.87-1.97 20.94 6.18 30.15 6.96 7.86 16.51 11.6 24.94 10.67.71-.08 1.4.3 1.75.92 5.2 9.35 9.26 19.24 12.1 29.48.47 1.68-1.48 3-2.85 1.93-1.2-.93-2.5-1.76-3.92-2.47-9.06-4.54-19.62-2.67-26.52 3.88-1.11 9.45 3.7 19.03 12.76 23.57 7.4 3.71 15.81 3.13 22.4-.78 1.18-.7 2.67.07 2.76 1.44.19 2.86.29 5.73.29 8.61 0 11.91-1.55 23.47-4.45 34.48-.44 1.68-2.72 1.84-3.43.25-.83-1.86-1.93-3.64-3.29-5.29-6.45-7.82-16.86-10.39-25.82-7.2-4.84 8.18-4.33 18.9 2.12 26.72 4.87 5.91 12.02 8.82 19.08 8.51 1.39-.06 2.33 1.38 1.71 2.63-7.01 14.11-16.42 26.84-27.68 37.64-1.3 1.25-3.42.02-3.01-1.74.5-2.13.71-4.38.57-6.68-.57-10.12-7.45-18.34-16.57-21.07-8.75 3.73-14.66 12.68-14.09 22.8.44 7.82 4.66 14.5 10.76 18.39 2.09 1.33 2.1 4.35 0 5.66-10.88 6.77-22.78 12.04-35.42 15.53-1.71.47-2.98-1.51-1.89-2.91 1.45-1.85 2.61-3.97 3.39-6.33 2.89-8.67-.14-17.86-6.88-23.17-8.57.22-16.51 5.75-19.4 14.42-2.27 6.82-.87 13.96 3.11 19.29.86 1.15.17 2.79-1.26 2.93-4.29.41-8.64.63-13.04.63-5.65 0-11.22-.35-16.68-1.03-1.38-.17-2.05-1.75-1.24-2.88 3.78-5.28 5.08-12.26 2.85-18.94-2.89-8.67-10.83-14.2-19.4-14.42-6.73 5.32-9.76 14.5-6.88 23.17.61 1.82 1.44 3.51 2.46 5.03.95 1.42-.45 3.23-2.08 2.71-12.9-4.1-24.97-10.09-35.88-17.63-1.13-.78-1.03-2.45.17-3.1 6.86-3.72 11.7-10.83 12.17-19.24.57-10.12-5.34-19.07-14.09-22.8-9.11 2.73-16 10.95-16.57 21.07-.08 1.5-.03 2.97.16 4.41.23 1.73-1.93 2.73-3.13 1.46-9.09-9.55-16.8-20.43-22.81-32.3-.62-1.22.27-2.64 1.63-2.64 7.77-.02 15.36-3.94 19.79-11.07 5.34-8.61 4.43-19.3-1.46-26.76-9.31-1.97-19.29 1.96-24.63 10.57-.76 1.23-1.4 2.5-1.91 3.79-.64 1.63-2.99 1.5-3.44-.2-2.94-11.08-4.51-22.71-4.51-34.7 0-3.11.12-6.2.33-9.28.1-1.4 1.67-2.15 2.84-1.37 6.72 4.44 15.58 5.27 23.35 1.38 9.06-4.54 13.88-14.13 12.76-23.57-6.9-6.55-17.46-8.43-26.52-3.88-1.92.96-3.64 2.14-5.16 3.51-1.35 1.21-3.46-.04-2.99-1.79 2.84-10.63 6.99-20.9 12.37-30.59.34-.61 1.01-.99 1.71-.93 8.3.71 17.6-3.04 24.42-10.74 8.15-9.21 10.27-21.28 6.18-30.15-9.3-2.99-21.02.58-29.17 9.79-7.2 8.13-9.68 18.48-7.35 26.9.13.46.08.96-.16 1.38-2.21 3.91-4.23 7.91-6.05 11.99-.64 1.43-2.69 1.45-3.3.01-.46-1.09-1.01-2.16-1.65-3.2-5.33-8.62-15.31-12.56-24.62-10.6-5.9 7.46-6.82 18.15-1.49 26.77 4.56 7.37 12.52 11.32 20.55 11.08 1.18-.03 2.04 1.07 1.79 2.22-2.29 10.13-3.47 20.54-3.47 31.07 0 5.55.32 11.03.95 16.42.19 1.62-1.67 2.6-2.93 1.57-.58-.47-1.18-.93-1.81-1.35-8.41-5.66-19.12-5.14-26.8.48-2.31 9.23 1.25 19.35 9.66 25 7.25 4.88 16.28 4.88 23.54 1.18 1.79-.91 3.96 0 4.61 1.9 4.52 13.38 11.04 25.64 19.15 36.87.98 1.35-.21 3.2-1.84 2.84-2.32-.51-4.75-.68-7.24-.44-10.08.96-18.04 8.15-20.42 17.36 4.06 8.6 13.23 14.17 23.32 13.22 8.77-.83 15.91-6.37 19.19-13.85.51-1.16 2.03-1.44 2.93-.55 12.29 12.07 26.78 21.92 42.8 28.88 1.45.63 1.45 2.64.02 3.31-.82.38-1.63.82-2.42 1.3-8.63 5.31-12.6 15.28-10.66 24.59 7.45 5.92 18.13 6.87 26.76 1.56 7.34-4.52 11.31-12.41 11.13-20.4-.02-1.16 1.06-2.01 2.19-1.77 9.36 1.96 19.06 3 29 3 8.46 0 16.74-.76 24.79-2.19 1.12-.2 2.11.65 2.14 1.78.18 8.08 4.59 15.85 12.25 20 8.91 4.83 19.53 3.3 26.63-3.03 1.42-9.4-3.09-19.14-12-23.97l-.04-.02c-1.35-.73-1.25-2.71.17-3.3 15.38-6.39 29.4-15.41 41.48-26.52.85-.78 2.17-.58 2.79.39 4.43 7 12.48 11.42 21.37 10.79 10.11-.7 18.24-7.7 20.85-16.85-3.85-8.69-12.88-14.49-22.99-13.79-.26.02-.51.04-.77.07-1.54.16-2.53-1.6-1.63-2.86 7.68-10.79 13.88-22.7 18.3-35.43.34-.98 1.42-1.47 2.39-1.09 7.88 3.11 17.21 1.8 24.03-4.24 7.6-6.68 9.81-17.18 6.31-26.03z"  class="icons_factory_shape icons_factory_ag icons_factory_ag_a" data-index="1" data-color="3" style="-webkit-transform-origin: 50% 100% !important; transform-origin: 50% 100% !important; -ms-transform-origin: 50% 100% !important; -webkit-transform-box: fill-box; transform-box: fill-box;"></path><g class="icons_factory_shape" data-index="0"><path id="ic_time_award-five-years_52-53_1_3"  fill="#ffffff" d="m183.98 267.04c.64-1.14 6.1-1.29 7.44-.4 1.33.89 6.54 13.59 7.62 13.59 1.09 0 6.42-13.03 7.86-13.79s6.59-.3 7.08.48c.48.79-10.28 18.2-10.64 20.32s.36 11.13-.91 12.1-5.75 1.39-6.65 0c-.91-1.39-.3-10.28-1.09-12.34s-11.31-18.87-10.71-19.96z"  class="icons_factory_shape icons_factory_ag icons_factory_ag_e" data-index="3" data-color="1"></path><path id="ic_time_award-five-years_52-53_1_4"  fill="#ffffff" d="m299.93 285.89c0-1.24 5.59-2.57 5.82-10.09s-7.84-9.26-9.77-9.49-13.18-.8-14.35.37c-1.1 1.1-1.01 31.73-.14 32.78s6.1.73 6.92-.23c.83-.96.28-10.96.78-11.46s2.61-.37 3.3.05c.69.41 6.42 11.23 7.66 11.97 1.24.73 7.11.55 7.75-.46.65-1.02-7.97-12.39-7.97-13.44zm-1.97-9.31c-.32 6.24-7.43 5.55-8.34 4.68-.8-.76-.92-8.07.28-8.94 1.32-.97 8.34-1.19 8.06 4.26z"  class="icons_factory_shape icons_factory_ag icons_factory_ag_e" data-index="4" data-color="1"></path><path id="ic_time_award-five-years_52-53_1_5"  fill="#ffffff" d="m219.39 266.51c1.02-.97 19.74-1.1 20.7-.07s.48 4.71-.45 5.33-11.69-.31-12.41.62-1 6.16-.07 6.91c.93.76 8.28.21 9.28.83.89.55.89 4.81-.14 5.4-1.03.58-7.87-.28-8.87.62-1 .89-1 6.77-.17 7.5.83.72 11.21 0 12.35.62 1.13.62 1.44 4.71.41 5.23s-19.57 1.17-20.7-.1c-1.13-1.28-1.27-31.61.07-32.89z"  class="icons_factory_shape icons_factory_ag icons_factory_ag_e" data-index="5" data-color="1"></path><path id="ic_time_award-five-years_52-53_1_6"  fill="#ffffff" d="m263.89 267.07c-1.45-1.09-6.17-1.04-7.35-.27s-13.52 31.16-12.93 32.7c.32.85 6.32.96 7.26-.14s1.54-5.35 3.18-6.17c1.63-.82 10.93-.73 12.25.23 1.32.95 1.99 5.46 3.17 6.22s6.31.81 6.9-.33c.58-1.13-11.03-31.15-12.48-32.24zm-.09 19.05c-.54.82-6.78.86-7.44 0-.73-.95 2.63-11.43 3.67-11.34s4.31 10.52 3.77 11.34z"  class="icons_factory_shape icons_factory_ag icons_factory_ag_e" data-index="6" data-color="1"></path><path id="ic_time_award-five-years_52-53_1_7"  fill="#ffffff" d="m324.1 266.5c4.51-.17 8.54 2.17 9.62 2.95s-1.86 6.15-3.25 5.33-4.07-2.12-6.33-2.08c-2.64.04-4.05 1.73-4.12 2.95-.39 6.72 14.43 2.77 14.99 13.09.43 7.89-5.76 11.92-11.66 11.92-5.33 0-9.79-2.69-11.01-3.73-1.21-1.04 1.99-6.2 3.68-5.16s4.9 2.86 7.28 2.82 4.14-1.74 4.29-3.64c.56-7.37-15.17-1.56-14.78-14.91.17-4.94 4.53-9.28 11.29-9.54z"  class="icons_factory_shape icons_factory_ag icons_factory_ag_e" data-index="7" data-color="1"></path></g></g></g></defs><use xmlns:xlink="http://www.w3.org/1999/xlink" xlink:href="#ic_time_award-five-years_52-53_1_btm_shadow"/><use xmlns:xlink="http://www.w3.org/1999/xlink" xlink:href="#ic_time_award-five-years_52-53_1_code"/><g transform-origin="50% 50%" class="icons_factory_sparks_group_1 icons_factory_sparks_animation"><g transform-origin="0 0" transform="matrix(1,0,0,1,51.44,246)" class="icons_factory_spark" ><path class="icons_factory_spark_shape" fill="#fff" d="m10 0c .64-.06 2.69 5.38 3.54 6.46.84 1.09 6.43 2.84 6.46 3.54s-5.41 2.62-6.46 3.54c-1.06.91-2.75 6.48-3.54 6.46s-2-5.06-3.54-6.46-6.52-2.76-6.46-3.54 5.21-2.01 6.46-3.54 2.9-6.4 3.54-6.46z"/></g><g transform-origin="0 0" transform="matrix(2.5,0,0,2.5,169.2,169.2)" class="icons_factory_spark" ><path class="icons_factory_spark_shape" fill="#fff" d="m10 0c .64-.06 2.69 5.38 3.54 6.46.84 1.09 6.43 2.84 6.46 3.54s-5.41 2.62-6.46 3.54c-1.06.91-2.75 6.48-3.54 6.46s-2-5.06-3.54-6.46-6.52-2.76-6.46-3.54 5.21-2.01 6.46-3.54 2.9-6.4 3.54-6.46z"/></g><g transform-origin="0 0" transform="matrix(1.5,0,0,1.5,246,322.8)" class="icons_factory_spark" ><path class="icons_factory_spark_shape" fill="#fff" d="m10 0c .64-.06 2.69 5.38 3.54 6.46.84 1.09 6.43 2.84 6.46 3.54s-5.41 2.62-6.46 3.54c-1.06.91-2.75 6.48-3.54 6.46s-2-5.06-3.54-6.46-6.52-2.76-6.46-3.54 5.21-2.01 6.46-3.54 2.9-6.4 3.54-6.46z"/></g><g transform-origin="0 0" transform="matrix(1.5,0,0,1.5,399.6,194.8)" class="icons_factory_spark" ><path class="icons_factory_spark_shape" fill="#fff" d="m10 0c .64-.06 2.69 5.38 3.54 6.46.84 1.09 6.43 2.84 6.46 3.54s-5.41 2.62-6.46 3.54c-1.06.91-2.75 6.48-3.54 6.46s-2-5.06-3.54-6.46-6.52-2.76-6.46-3.54 5.21-2.01 6.46-3.54 2.9-6.4 3.54-6.46z"/></g><g transform-origin="0 0" transform="matrix(1,0,0,1,389.36,389.36)" class="icons_factory_spark" ><path class="icons_factory_spark_shape" fill="#fff" d="m10 0c .64-.06 2.69 5.38 3.54 6.46.84 1.09 6.43 2.84 6.46 3.54s-5.41 2.62-6.46 3.54c-1.06.91-2.75 6.48-3.54 6.46s-2-5.06-3.54-6.46-6.52-2.76-6.46-3.54 5.21-2.01 6.46-3.54 2.9-6.4 3.54-6.46z"/></g></g></svg>