<svg class="icons_factory" viewBox="0 0 512 512" xmlns="http://www.w3.org/2000/svg" xmlns:xlink="http://www.w3.org/1999/xlink" version="1.1"><image class="icons_factory_fallback_png" src="http://localhost:8888/wordpress-4-6/wp-content/plugins/icons-factory/presets/MY@DIS.png" width="512" height="512" /><defs><g id="ic_data_percentage_43-28_1_bg" transform-origin="50% 50%" transform="matrix(0.9,0,0,0.9,0,0)"><path data-index="-1" d="m502 315.8c-2.3-4.9-6.2-10.6-8.5-9.1s-4.7-.9-4.4-4c .4-3 .8-14.7-.4-16.6s-8.3-10.8-10.6-10c-3.3 1.2-8-2.1-8.1-5.7 0-3.6-9.5-9.3-11.1-9.8-.9-.3-7-2.8-7-3.6.1-.8 3.8-5.7 5.3-6.6 4-2.4 21.2-35.2 23.4-36.1 2.8-1.3 1.8-8.7.9-9.8-.9-1.2-.7-6.3-.5-11s-3.4-12.1-3.8-13.6-2.9-11.9-7-14.3c-4.1-2.3-5.8-7.8-8-9.6s-3.6-1.7-8.2-4.8c-4.7-3.2-4.7-9.1-7.3-8.2s-9.3-2.8-10.2-4.8c-1-2-3-6.8-5.8-5.8s-6.3.1-10.4-1.7.3-6.8 1.9-8 5.7-6.4 5.7-6.4.4-7.9.8-10.8c.5-3-6.8-13.7-9.5-16.9-2.6-3.3-10.1-11.4-10.9-13.4-.8-2.1-5.8-5.3-8.9-5.3-3.1.1-4.8-5.9-5.8-8.2-1-2.4-9.9-3.9-13-3.3-3.1.5-5.8-7.1-3.6-9.1s-6-7.2-8.7-8.7c-2.7-1.6-4.5-7.8-10.1-10.6-5.4-2.9-23.4-4-27.1-3.4-3.4.3-18.4 13.5-22.5 15.1-.5.1-18.9 14-20.3 15.6-1.1 1.4-12.1 5.1-10.5 2.5 2-3 17.6-20.6 16.4-23.1-.9-2.5-6-2.7-8.9-5.8-1.7-2-3.3-11.3-7.3-11.3-1.5 0-7-2.4-7.9-4.8-1.1-2.9-12.8-6.5-24.3-9.1-5.8-1.3-18.6.3-16.2-3 .6-.8.3-1.2-.4-1.4-.4-.1-1.9-.2-2.6-.1-1.3.1-6 .8-8.2 1.4s-25.9 12.4-39.1 20.8c-11.8 5.9-76.5 69.5-103.5 96.6-7.1 6-31.6 41.5-30.7 43 .8 3.1-4 6.3-4.7 7.6-.8 1.3-5.5 6.7-6.3 7.3-4.4 3.2-27.5 55.3-26.7 58.1-.1.9-.6 3.1-.2 5.6.2 1.3 2.1 4.2 1.4 5.4-1.1 1.7 4.2 13 5.4 12.1 1.1-.9 7.4 5.4 6 10.3-1.7 4.8 13.3 20.6 14.6 25.1.8 4.4 13 15 13.7 17.9-.1 3.4-16.5 36.3-17.6 40.6-2.4 7.4 2.3 16.7 6.4 22.9 3.3 5 35.6 46.9 39.2 50.7 3.5 3.8 16.1 7.2 19.6 8.5 3.3 1.4 11.3-1.7 14.2-3.9 2.8-2.1 6 2.6 6.2 5.5.2 3 8.8 10.7 9.1 11.9.3 1.3 14.2 7.3 14.7 11.2.5 4.1 22.4 16.9 23.8 16.9 1.4.1 6.9 1.2 7.6 2.4.8 1.1 9.3 3.5 9.4 5.9.1 2.5 9.6 3.3 12.9 3.5 3.2.2 15.8-6.2 15.6-7.7-.6-1.2 27.3-16.8 29.7-17.8 2-.7 8.4-5 7.3-7.5-1.2-2.4 9.1-4.8 11.2-4.4s5.7-4.5 4.6-8c-1.1-3.4 6.8-2.6 6.8-2.6s7.9-1.7 6.4-4.8 6-6.3 10.3-6.8 4.7 3.6-5.4 15.5c-8.2 9.7-19.7 21.9-24.3 25.7-4.9 4.8 6.4 14.6 11.9 16.1 5.4 1.5 17.4 5.4 17.2 7.8-.1 1.3 2.9 5.1 7.1 4.2 6.2-1.3 7.5 1.7 7.7 4.3.3 2.6 4.7 4 8.7 5.1 3.2.9 6.1 2.4 9.4 2.9 5 .7 14.1-1.8 21.9-6.7s15.6-10.1 23.4-15.6c6-4.3 11.8-8.8 17.6-13.3 22.8-17.7 45.3-39.4 45.9-40.7 2.1-2.9 29.4-34.3 33.6-38.3 4.7-3.9 11.4-12.4 17.2-23.1 6.2-10.9 20.6-36.3 21.7-39.6 2.2-3.9 5.3-10.6 2.7-17.4z
" /></g><g style="transform-origin: center;" transform-origin="50% 50%" class="icons_factory_base_code" transform="matrix(1.1,0,0,1.1,0,0)" id="ic_data_percentage_43-28_1_code"><g transform-origin="50% 50%" class=""><path id="ic_data_percentage_43-28_1_0"  stroke="#000000" stroke-width="8" fill="#FFF" d="m375.94 376.03c-7.05 7.05-231.49 10.06-239.54 0s-6.04-234.51 0-239.54 231.49-7.05 239.54 0 7.04 232.5 0 239.54z"  class="icons_factory_shape icons_factory_ag icons_factory_ag_a" data-index="0" data-color="1"></path><g class="icons_factory_shape" data-index="0"><path id="ic_data_percentage_43-28_1_2"  stroke="#000000" stroke-width="8" fill="#fbc02d" d="m386 241.92c-7.05 6.29-111.21 8.8-117.5 0s-6.79-110.46 0-117.5c6.79-7.05 111.46-6.04 117.5 0 6.04 6.03 7.05 111.2 0 117.5z"  class="icons_factory_shape icons_factory_ag icons_factory_ag_c" data-index="2" data-color="3"></path><path id="ic_data_percentage_43-28_1_3"  stroke="#000000" stroke-width="2.4" fill="#000000" d="m341.78 153.79c1.51-.57 6.61 1.19 6.61 2.33 0 1.57-32.4 57.97-33.72 58.72s-6.69-.68-7.14-2.26c-.38-1.33 32.74-58.22 34.25-58.79zm-18.56 14.15c.38 11.32-6.92 14.72-12.33 14.85s-14.59-3.65-14.47-14.09c.15-12.84 8.56-14.59 13.21-14.85 5.53-.3 13.23 3.15 13.59 14.09zm-6.54.63c-.38-5.03-3.07-8.56-7.17-8.56s-6.54 3.22-6.54 8.43 3.07 8.05 7.17 8.05c4.1.01 6.93-2.72 6.54-7.92zm43.91 30.32c-.25 9.81-6.79 14.22-12.2 14.34-5.41.13-14.72-3.4-14.59-13.84.15-12.84 8.43-14.72 13.08-14.97 5.52-.29 14.01 2.65 13.71 14.47zm-6.54 0c-.38-5.03-2.82-8.05-6.92-8.05s-6.54 3.47-6.54 8.68 2.82 7.93 6.92 7.93c4.09 0 6.93-3.36 6.54-8.56z"  class="icons_factory_shape icons_factory_ag icons_factory_ag_e" data-index="3" data-color="1"></path></g></g></g></defs><use xmlns:xlink="http://www.w3.org/1999/xlink" class="icons_factory_bg_shape" xlink:href="#ic_data_percentage_43-28_1_bg" fill="#ffc107"  /><use xmlns:xlink="http://www.w3.org/1999/xlink" xlink:href="#ic_data_percentage_43-28_1_code"/></svg>