<svg class="icons_factory" viewBox="0 0 512 512" xmlns="http://www.w3.org/2000/svg" xmlns:xlink="http://www.w3.org/1999/xlink" version="1.1"><image class="icons_factory_fallback_png" src="http://localhost:8888/wordpress-4-6/wp-content/plugins/icons-factory/presets/MY@MAG.png" width="512" height="512" /><defs><g id="ic_other_tree_51-06_1_bg" transform-origin="50% 50%" transform="matrix(0.9,0,0,0.9,0,0)"><path data-index="-1" d="m498.3 260.6c-6.8 11.9-17.5 61.3-23.3 64.7s1 19.9-1.9 25.8c-2.9 5.8-13.1 16-12.2 23.3 1 7.3-5.3 28.7-13.6 30.6s-14.6 28.7-21.4 33.6-30.2 29.2-44.7 33.6-62.3 22.9-75.4 19.5-27.7-1-32.6 2.9-40.4 3.4-48.6 1c-8.3-2.4-71.5-21.4-92.4-35.5s-73.4-44.7-83.2-65.2c-9.7-20.4-15.1-37.9-14.6-47.2.5-9.2-12.6-22.4-12.6-30.6s1.9-40.4-1-49.1c-2.9-8.8-13.6-37.9-5.3-52.5 8.2-14.7 2.8-42.5 13.5-57.5 10.7-15.1 23.3-44.7 35.5-58.4s44.7-35 51.1-46.7 38.9-29.7 55.9-30.2 50.6 1.5 60.3-3.4 55.4-2.4 73.9-1.9 67.1 16.5 89 33.1 31.1 27.7 31.1 37.9 4.9 11.2 13.1 16.5 31.1 9.7 35 25.8 18.5 34.5 19.9 46.2c1.5 11.7 1 47.7 6.8 57.4 6 9.7 1.6 19.5-2.3 26.3zm-493.8 9.8c-3 5.1-1 12.7.5 16.6s12.2 4.2 11.5-5.5c-.7-9.4-8.8-16.6-12-11.1zm429.7-182.1c-3.9 4.7 5.4 12.6 13.6 9.4 8-3.1-9.6-14.1-13.6-9.4zm45.1 241.7c-1.7 3.9.1 8.6 1.4 10.8 1.4 2.2 6.6 1.1 5.1-6.3-1.2-6.1-4.8-8.4-6.5-4.5zm-10.9 35.6c-4.2 4.5 8.9 18.3 13.9 17.9s11-15.3 6.2-21.2c-5.5-6.7-16-1.3-20.1 3.3zm14.8-17c-1.2 2.6 9.4 5.7 8 2.1-2.2-5.6-6.9-4.7-8-2.1zm-20.3 35.4c-1.2 2.6 5.3 8.8 8 2.1 2.3-5.6-6.8-4.7-8-2.1z
" /></g><g style="transform-origin: center;" transform-origin="50% 50%" class="icons_factory_base_code" transform="matrix(1.1,0,0,1.1,0,0)" id="ic_other_tree_51-06_1_code"><g transform-origin="50% 50%" class=""><path id="ic_other_tree_51-06_1_0"  fill="#2962ff" d="m350.95 248.93c4.4 4.84-2.99 56.76-32 77.48-26.39 18.84-49.54 7.06-57.83-3.37-9.93-12.49-11.23-42.11 14.04-61.2 25.26-19.08 70.18-19.08 75.79-12.91z"  class="icons_factory_shape icons_factory_ag icons_factory_ag_e" data-index="0" data-color="4" style="-webkit-transform-origin: 0% 100% !important; transform-origin: 0% 100% !important; -ms-transform-origin: 0% 100% !important; -webkit-transform-box: fill-box; transform-box: fill-box;"></path><path id="ic_other_tree_51-06_1_1"  fill="#2962ff" d="m228.46 127.25c6.12-2.34 51.78 23.44 60.52 58.01 7.95 31.44-11.46 48.71-24.19 52.64-15.25 4.7-43.31-4.87-51.89-35.35s7.77-72.32 15.56-75.3z"  class="icons_factory_shape icons_factory_ag icons_factory_ag_e" data-index="1" data-color="4" style="-webkit-transform-origin: 100% 100% !important; transform-origin: 100% 100% !important; -ms-transform-origin: 100% 100% !important; -webkit-transform-box: fill-box; transform-box: fill-box;"></path><path id="ic_other_tree_51-06_1_2"  fill="#2979ff" d="m315.85 101.02c-4.27-2.57-79.09 33.94-101 75.16-17.96-8.87-33.84-13.73-36.9-12.71-4.58 1.53-26.78 88.92-.56 120.72 26.39 32 64.53 29.39 87.05 21.64 24.6-8.46 66.66-33.06 75.39-89.41 6.82-43.97-16.94-111.17-23.98-115.4z"  class="icons_factory_shape icons_factory_ag icons_factory_ag_c" data-index="2" data-color="3" style="-webkit-transform-origin: 50% 100% !important; transform-origin: 50% 100% !important; -ms-transform-origin: 50% 100% !important; -webkit-transform-box: fill-box; transform-box: fill-box;"></path><path id="ic_other_tree_51-06_1_3"  fill="#000000" d="m230.72 303.32c4.94 8.23 10.71 27.77 8.73 39.68-.58 3.48-2.43 10.26-2.68 11.56-.64 3.37-4.5-2.79-6.25-4.07-1.49-1.09-4.05 3.25-2.88 4.61 1.19 1.39 6.45 7.04 5.95 12.8-.48 5.62-8.19 25.93-9.23 29.46-2.38 8.13 23.81 19.24 25.39 8.33 1.27-8.72 4.36-53.37 6.75-63.88 1.36-6 6.5-10.56 13.89-17.56 1.88-1.79-2.98-5.65-4.66-4.17-8.73 7.71-11.21 8.63-15.18 1.88-3.97-6.74-7.96-14.9-11.31-19.54-2.57-3.57-10.3-2.08-8.52.9z"  class="icons_factory_shape icons_factory_ag icons_factory_ag_a" data-index="3" data-color="1" style="-webkit-transform-origin: 0% 100% !important; transform-origin: 0% 100% !important; -ms-transform-origin: 0% 100% !important; -webkit-transform-box: fill-box; transform-box: fill-box;"></path></g></g></defs><use xmlns:xlink="http://www.w3.org/1999/xlink" class="icons_factory_bg_shape" xlink:href="#ic_other_tree_51-06_1_bg" fill="#ffffff" stroke="#e0e0e0" stroke-width="2" /><use xmlns:xlink="http://www.w3.org/1999/xlink" xlink:href="#ic_other_tree_51-06_1_code"/></svg>