<svg class="icons_factory" viewBox="0 0 512 512" xmlns="http://www.w3.org/2000/svg" xmlns:xlink="http://www.w3.org/1999/xlink" version="1.1"><image class="icons_factory_fallback_png" src="http://localhost:8888/wordpress-4-6/wp-content/plugins/icons-factory/presets/MY@ELG.png" width="512" height="512" /><defs><g id="ic_other_table-lamp_41-29_1_bg" transform-origin="50% 50%" transform="matrix(0.9,0,0,0.9,0,0)"><path data-index="-1" d="M512 256c0 141.4-114.6 256-256 256S0 397.4 0 256 114.6 0 256 0s256 114.6 256 256z
" /></g><g style="transform-origin: center;" transform-origin="50% 50%" class="icons_factory_base_code"  id="ic_other_table-lamp_41-29_1_code"><g transform-origin="50% 50%" class=""><g class="icons_factory_shape icons_factory_ag icons_factory_ag_e" data-index="0" style="-webkit-transform-origin: 100% 100% !important; transform-origin: 100% 100% !important; -ms-transform-origin: 100% 100% !important; -webkit-transform-box: fill-box; transform-box: fill-box;"><path id="ic_other_table-lamp_41-29_1_1"  stroke="#ffffff" stroke-width="3" fill="#2962ff" d="m351.65 254.83c-3.33-4.99-75.09-84.13-77.35-88.08s9.03-9.6 11.86-6.21 71.7 84.69 75.09 88.08c3.38 3.39-6.22 11.3-9.6 6.21z"  class="icons_factory_shape" data-index="1" data-color="1"></path><path id="ic_other_table-lamp_41-29_1_2"  stroke="#ffffff" stroke-width="3" fill="#2962ff" d="m370.25 244.31c-3.38-4.96-78.32-92.35-80.62-96.28s8.94-9.69 11.79-6.33c2.86 3.36 74.94 92.95 78.36 96.3s-6.1 11.35-9.53 6.31z"  class="icons_factory_shape" data-index="2" data-color="1"></path><path id="ic_other_table-lamp_41-29_1_3"  stroke="#ffffff" stroke-width="3" fill="#2962ff" d="m256.39 144.21c2.75 2.62 9.63 9.89 12.59 11.98 2.95 2.09 9.01-2.1 6.73-5.77-2.29-3.67-12.97-13.66-13.9-15.01-.93-1.37-9.62 4.8-5.42 8.8z"  class="icons_factory_shape" data-index="3" data-color="2"></path><path id="ic_other_table-lamp_41-29_1_4"  stroke="#ffffff" stroke-width="3" fill="#2962ff" d="m307.32 177.54c4.25-4.24-.91-45.67-5.83-46.53-4.92-.87-38.63 24.19-37.78 29.14 1.25 7.21 39.36 21.63 43.61 17.39z"  class="icons_factory_shape" data-index="4" data-color="2"></path></g><g class="icons_factory_shape icons_factory_ag icons_factory_ag_c" data-index="1" style="-webkit-transform-origin: 0% 100% !important; transform-origin: 0% 100% !important; -ms-transform-origin: 0% 100% !important; -webkit-transform-box: fill-box; transform-box: fill-box;"><path id="ic_other_table-lamp_41-29_1_6"  stroke="#ffffff" stroke-width="3" fill="#2962ff" d="m357.29 253.76c-3.33 4.99-80.74 97.68-83 101.63s9.03 9.6 11.86 6.21 77.35-98.24 80.74-101.63-6.21-11.29-9.6-6.21z"  class="icons_factory_shape" data-index="6" data-color="1"></path><path id="ic_other_table-lamp_41-29_1_7"  stroke="#ffffff" stroke-width="3" fill="#2962ff" d="m375.36 263.92c-3.33 4.99-72.83 87.51-75.09 91.47s9.03 9.6 11.86 6.21 69.45-88.08 72.83-91.47c3.39-3.38-6.21-11.29-9.6-6.21z"  class="icons_factory_shape" data-index="7" data-color="1"></path><path id="ic_other_table-lamp_41-29_1_8"  stroke="#ffffff" stroke-width="3" fill="#2962ff" d="m341.48 248.96c-1.74 2.49-1.69 15.24.28 16.66s39.52 19.76 43.19 16.37 4.17-45.38-.28-47.71c-6.49-3.39-41.21 11.86-43.19 14.68z"  class="icons_factory_shape" data-index="8" data-color="2"></path></g><g class="icons_factory_shape icons_factory_ag icons_factory_ag_a" data-index="2" style="-webkit-transform-origin: 50% 100% !important; transform-origin: 50% 100% !important; -ms-transform-origin: 50% 100% !important; -webkit-transform-box: fill-box; transform-box: fill-box;"><path id="ic_other_table-lamp_41-29_1_10"  stroke="#ffffff" stroke-width="3" fill="#2962ff" d="m284.39 368.62c.06 3.22-.41 11.7.29 14.72s9.54 4.21 10.79.66c1.25-3.56.85-15.95 1.24-17.31.39-1.37-12.42-2.98-12.32 1.93z"  class="icons_factory_shape" data-index="10" data-color="2" style="-webkit-transform-origin: 50% 100% !important; transform-origin: 50% 100% !important; -ms-transform-origin: 50% 100% !important; -webkit-transform-box: fill-box; transform-box: fill-box;"></path><path id="ic_other_table-lamp_41-29_1_11"  stroke="#ffffff" stroke-width="3" fill="#2962ff" d="m292.35 327.3c-5.98.53-28.55 35.65-25.33 39.47s45.16 6.17 47.67 1.83c3.67-6.34-16.36-41.83-22.34-41.3z"  class="icons_factory_shape" data-index="11" data-color="2" style="-webkit-transform-origin: 50% 100% !important; transform-origin: 50% 100% !important; -ms-transform-origin: 50% 100% !important; -webkit-transform-box: fill-box; transform-box: fill-box;"></path><path id="ic_other_table-lamp_41-29_1_12"  stroke="#ffffff" stroke-width="3" fill="#2962ff" d="m198.39 379.72c-4.09 1.8-16.42 22.99-12.51 26.66 3.91 3.68 138.42 2.76 140.59 0s-6.86-25.28-11.21-26.66-111.66-2.3-116.87 0z"  class="icons_factory_shape" data-index="12" data-color="1"></path><path id="ic_other_table-lamp_41-29_1_13"  stroke="#ffffff" stroke-width="3" fill="#2962ff" d="m214.26 367.62c-1.32 1.43-3.48 10.77-2.42 12.26 1.4 1.96 24.17 1.55 24.84.35.64-1.13.01-4.66-.49-5.22-1.2-1.34-11.22-.35-11.76-.8-.6-.49-8.78-8.09-10.17-6.59z"  class="icons_factory_shape" data-index="13" data-color="3"></path></g><path id="ic_other_table-lamp_41-29_1_14"  stroke="#ffffff" stroke-width="3" fill="#2962ff" d="m139.37 143.41c-13.2 20.18 79.77 95.44 97.66 83.07 17.89-12.38 20.98-43.84 15.99-58.61-3.74-11.06-4.61-14.93-.89-19.61 6.34-7.98 19.58-21.68 24.73-28.19 9.44-11.93-25.55-43.46-36.92-32.01-9.58 9.65-22.76 26.1-27.69 31.19-3.78 3.9-8.47 1.2-18.97-.65-7.81-1.38-39.48 2.76-53.91 24.81z"  class="icons_factory_shape icons_factory_ag icons_factory_ag_g" data-index="14" data-color="3" style="-webkit-transform-origin: 100% 0% !important; transform-origin: 100% 0% !important; -ms-transform-origin: 100% 0% !important; -webkit-transform-box: fill-box; transform-box: fill-box;"></path></g></g></defs><use xmlns:xlink="http://www.w3.org/1999/xlink" class="icons_factory_bg_shape" xlink:href="#ic_other_table-lamp_41-29_1_bg" fill="#2962ff" stroke="#ffffff" stroke-width="1" /><use xmlns:xlink="http://www.w3.org/1999/xlink" xlink:href="#ic_other_table-lamp_41-29_1_code"/></svg>