<svg class="icons_factory" viewBox="0 0 512 512" xmlns="http://www.w3.org/2000/svg" xmlns:xlink="http://www.w3.org/1999/xlink" version="1.1"><image class="icons_factory_fallback_png" src="http://localhost:8888/wordpress-4-6/wp-content/plugins/icons-factory/presets/BASE@VIO.png" width="512" height="512" /><defs><g id="ic_other_magnifier_19-30_1_bg" transform-origin="50% 50%" transform="matrix(0.85,0,0,0.85,0,0)"><path data-index="-1" d="M255.94 503C55.8 509.36 2.05 412.98.04 255.96S67.19 14.61 255.94 8.93c188.75-5.68 252.14 97.85 255.9 247.03S456.08 496.63 255.94 503z
" /></g><mask id="ic_other_magnifier_19-30_1_mask"> <use xmlns:xlink="http://www.w3.org/1999/xlink" stroke="#fff" stroke-width="4px" xlink:href="#ic_other_magnifier_19-30_1_bg" fill="#fff" / > </mask><g style="transform-origin: center;" transform-origin="50% 50%" class="icons_factory_base_code" transform="matrix(1.4,0,0,1.4,-25.6,66.56)" id="ic_other_magnifier_19-30_1_code"><g transform-origin="50% 50%" class=""><g class="icons_factory_shape icons_factory_ag icons_factory_ag_c" data-index="0"><path id="ic_other_magnifier_19-30_1_1"  fill="#FFF" d="m326.87 181.81c4.12-16.57-23.92-33.64-41.28-33.64s-41.28 12.6-41.28 29.94c0 22.4 20.49-5.36 40.56-4.34 24.18 1.24 38.26 23.11 42 8.04z"  fill-opacity=".6" class="icons_factory_shape" data-index="1" data-color="1"></path></g><g class="icons_factory_shape icons_factory_ag icons_factory_ag_a" data-index="1"><path id="ic_other_magnifier_19-30_1_3"  fill="#FFF" d="m363.54 243.41c21.53-39.29 18.87-94.77-34.17-123.5-53.03-28.73-100.3-5.86-122.91 32.81-44.2 75.59 26.39 107.35 13.52 132.1 0 0-3.51 6.86-6.43 7.49-3.48.75 26.94 18.27 25.86 14.88-.91-2.85 3.14-9.44 3.14-9.44 15.14-25.91 78.54 23.11 120.99-54.34zm-113.51 12.96c-26.92-17.42-41.55-57.44-23.68-88.39s51.31-47.36 90.36-24.81c39.06 22.55 39.2 63.8 23.68 90.69-15.53 26.88-57.95 43.49-90.36 22.51z"  class="icons_factory_shape" data-index="3" data-color="1"></path><path id="ic_other_magnifier_19-30_1_4"  fill="#E6E6E6" d="m215.93 262.3c7.93 13.31 26.45 28.25 41.06 27.27-6.95 1.58-12.68 1.61-17.46 14.86-1.17 4.54-4.54-.48-12.6-5.38-7.62-4.63-14.33-4.96-11.8-7.6 12.04-12.25 3.84-22.64.8-29.15z"  class="icons_factory_shape" data-index="4" data-color="2"></path><path id="ic_other_magnifier_19-30_1_5"  fill="#4a148c" d="m213.55 292.31c-2.3.81-9.22-3.39-13.36 3.79-6.37 11.04-40.95 72.4-47.64 83.99-6.69 11.6 34.71 35.31 41.33 23.85s42.55-72.23 48.92-83.27c4.15-7.18-2.61-10.8-3.39-13.49-.79-2.68-23.55-15.68-25.86-14.87z"  class="icons_factory_shape" data-index="5" data-color="3"></path></g></g></g></defs><use xmlns:xlink="http://www.w3.org/1999/xlink" class="icons_factory_bg_shape" xlink:href="#ic_other_magnifier_19-30_1_bg" fill="#9c27b0"  /><use xmlns:xlink="http://www.w3.org/1999/xlink" xlink:href="#ic_other_magnifier_19-30_1_code" mask="url(#ic_other_magnifier_19-30_1_mask)"/></svg>