<svg class="icons_factory" viewBox="0 0 512 512" xmlns="http://www.w3.org/2000/svg" xmlns:xlink="http://www.w3.org/1999/xlink" version="1.1"><image class="icons_factory_fallback_png" src="http://localhost:8888/wordpress-4-6/wp-content/plugins/icons-factory/presets/MY@LIN.png" width="512" height="512" /><defs><filter id="ic_other_fingers_28-12_1_shadow" x="-50%" y="-50%" height="200%" width="200%">

    <feGaussianBlur in="SourceAlpha" stdDeviation="20" result="ic_other_fingers_28-12_1_blur"></feGaussianBlur>
    <feOffset dx="0" dy="10" result="ic_other_fingers_28-12_1_shadow_effect_1" in="ic_other_fingers_28-12_1_blur"></feOffset>

    <feFlood flood-color="#558b2f" flood-opacity="0.15" result="ic_other_fingers_28-12_1_offset_color_1"></feFlood>
    <feComposite in="ic_other_fingers_28-12_1_offset_color_1" in2="ic_other_fingers_28-12_1_shadow_effect_1" operator="in" result="ic_other_fingers_28-12_1_shadow_1"></feComposite>

    <feGaussianBlur in="SourceAlpha" stdDeviation="3" result="ic_other_fingers_28-12_1_blur_2"></feGaussianBlur>
    <feOffset dx="0" dy="5" result="ic_other_fingers_28-12_1_shadow_effect_2" in="ic_other_fingers_28-12_1_blur_2"></feOffset>

    <feFlood flood-color="#558b2f" flood-opacity="0.5" result="ic_other_fingers_28-12_1_offset_color_2"></feFlood>
    <feComposite in="ic_other_fingers_28-12_1_offset_color_2" in2="ic_other_fingers_28-12_1_shadow_effect_2" operator="in" result="ic_other_fingers_28-12_1_shadow_2"></feComposite>

    <feMerge> 
        <feMergeNode in="ic_other_fingers_28-12_1_shadow_1"></feMergeNode>
        <feMergeNode in="ic_other_fingers_28-12_1_shadow_2"></feMergeNode>
        <feMergeNode in="SourceGraphic"></feMergeNode>
    </feMerge>

  </filter><g style="transform-origin: center;" transform-origin="50% 50%" class="icons_factory_base_code" transform="matrix(0.9,0,0,0.9,0,0)" id="ic_other_fingers_28-12_1_code"><g transform-origin="50% 50%" class=""><g class="icons_factory_shape icons_factory_ag icons_factory_ag_a" data-index="0" style="-webkit-transform-origin: 100% 100% !important; transform-origin: 100% 100% !important; -ms-transform-origin: 100% 100% !important; -webkit-transform-box: fill-box; transform-box: fill-box;"><path id="ic_other_fingers_28-12_1_1"  stroke="#ffffff" stroke-width="5" fill="#8bc34a" d="m124.91 328.33s28.97 44.62 38.64 58.34 87.49-35.51 78.08-49.85-36.7-59.63-36.7-59.63z"  class="icons_factory_shape" data-index="1" data-color="1"></path><path id="ic_other_fingers_28-12_1_2"  stroke="#ffffff" stroke-width="5" fill="#8bc34a" d="m25.83 224.83c-16.05-22.81 6.51-33.94 17.62-20.77 11.1 13.17 32.72 39.37 36.8 43.06s7.61.15 3.59-4.27-31-42-49.81-64.7 3.11-40.23 18.77-21.6 46.04 59.96 49.66 64.33c3.63 4.37 7.43.46 4.17-3.78s-35.34-50.99-46.99-67.34c-11.64-16.35 11.38-34.5 23.24-18.6s46.63 71.17 49.46 74.7 6.26.21 4.65-3.11-24.9-40.92-34.42-59.63c-9.52-18.7 16.72-32.93 28.39-11.29s47.3 87.15 55.38 89.02c8.08 1.86 7.38-17.29 24.52-37.65s37.66-10.15 26.54 17.9c-11.12 28.04-6.57 45.91-17.73 79.13s-41.73 57.19-73.85 57.23c-40.09.05-66.43-43.47-77.23-57.23s-26.71-32.6-42.76-55.4z"  class="icons_factory_shape" data-index="2" data-color="1"></path></g><g class="icons_factory_shape icons_factory_ag icons_factory_ag_c" data-index="1" style="-webkit-transform-origin: 0% 100% !important; transform-origin: 0% 100% !important; -ms-transform-origin: 0% 100% !important; -webkit-transform-box: fill-box; transform-box: fill-box;"><path id="ic_other_fingers_28-12_1_4"  stroke="#ffffff" stroke-width="5" fill="#8bc34a" d="m397.09 328.33s-28.97 44.62-38.64 58.34-87.48-35.51-78.08-49.85c9.41-14.34 36.7-59.63 36.7-59.63z"  class="icons_factory_shape" data-index="4" data-color="1"></path><path id="ic_other_fingers_28-12_1_5"  stroke="#ffffff" stroke-width="5" fill="#8bc34a" d="m496.17 224.83c16.05-22.81-6.51-33.94-17.62-20.77-11.1 13.17-32.72 39.37-36.8 43.06s-7.61.15-3.59-4.27 31-42 49.81-64.7-3.11-40.23-18.77-21.6c-15.66 18.64-46.04 59.96-49.66 64.33-3.63 4.37-7.43.46-4.17-3.78s35.34-50.99 46.99-67.34c11.64-16.35-11.38-34.5-23.24-18.6-11.86 15.91-46.63 71.17-49.46 74.7s-6.26.21-4.65-3.11 24.9-40.92 34.42-59.63-16.72-32.93-28.39-11.29-47.3 87.15-55.38 89.02c-8.08 1.86-7.38-17.29-24.52-37.65s-37.66-10.15-26.54 17.9c11.12 28.04 6.57 45.91 17.73 79.13s41.73 57.19 73.85 57.23c40.09.05 66.43-43.47 77.23-57.23s26.71-32.6 42.76-55.4z"  class="icons_factory_shape" data-index="5" data-color="1"></path></g></g></g><g transform-origin="50% 50%" class="icons_factory_base_code " transform="matrix(0.9,0,0,0.9,0,0)" id="ic_other_fingers_28-12_1_raw-clone"><path d="m124.91 328.33s28.97 44.62 38.64 58.34 87.49-35.51 78.08-49.85-36.7-59.63-36.7-59.63z"  class="icons_factory_shape"/><path d="m25.83 224.83c-16.05-22.81 6.51-33.94 17.62-20.77 11.1 13.17 32.72 39.37 36.8 43.06s7.61.15 3.59-4.27-31-42-49.81-64.7 3.11-40.23 18.77-21.6 46.04 59.96 49.66 64.33c3.63 4.37 7.43.46 4.17-3.78s-35.34-50.99-46.99-67.34c-11.64-16.35 11.38-34.5 23.24-18.6s46.63 71.17 49.46 74.7 6.26.21 4.65-3.11-24.9-40.92-34.42-59.63c-9.52-18.7 16.72-32.93 28.39-11.29s47.3 87.15 55.38 89.02c8.08 1.86 7.38-17.29 24.52-37.65s37.66-10.15 26.54 17.9c-11.12 28.04-6.57 45.91-17.73 79.13s-41.73 57.19-73.85 57.23c-40.09.05-66.43-43.47-77.23-57.23s-26.71-32.6-42.76-55.4z"  class="icons_factory_shape"/><path d="m397.09 328.33s-28.97 44.62-38.64 58.34-87.48-35.51-78.08-49.85c9.41-14.34 36.7-59.63 36.7-59.63z"  class="icons_factory_shape"/><path d="m496.17 224.83c16.05-22.81-6.51-33.94-17.62-20.77-11.1 13.17-32.72 39.37-36.8 43.06s-7.61.15-3.59-4.27 31-42 49.81-64.7-3.11-40.23-18.77-21.6c-15.66 18.64-46.04 59.96-49.66 64.33-3.63 4.37-7.43.46-4.17-3.78s35.34-50.99 46.99-67.34c11.64-16.35-11.38-34.5-23.24-18.6-11.86 15.91-46.63 71.17-49.46 74.7s-6.26.21-4.65-3.11 24.9-40.92 34.42-59.63-16.72-32.93-28.39-11.29-47.3 87.15-55.38 89.02c-8.08 1.86-7.38-17.29-24.52-37.65s-37.66-10.15-26.54 17.9c11.12 28.04 6.57 45.91 17.73 79.13s41.73 57.19 73.85 57.23c40.09.05 66.43-43.47 77.23-57.23s26.71-32.6 42.76-55.4z"  class="icons_factory_shape"/></g></defs><use xmlns:xlink="http://www.w3.org/1999/xlink" class="icons_factory_fx_sticker" xlink:href="#ic_other_fingers_28-12_1_raw-clone" fill="#8bc34a" stroke="#8bc34a" stroke-width="40" stroke-linecap="round" stroke-linejoin="round" filter="url(#ic_other_fingers_28-12_1_shadow)" /><use xmlns:xlink="http://www.w3.org/1999/xlink" xlink:href="#ic_other_fingers_28-12_1_code"/></svg>