<svg class="icons_factory" viewBox="0 0 512 512" xmlns="http://www.w3.org/2000/svg" xmlns:xlink="http://www.w3.org/1999/xlink" version="1.1"><image class="icons_factory_fallback_png" src="http://localhost:8888/wordpress-4-6/wp-content/plugins/icons-factory/presets/MY@BRO.png" width="512" height="512" /><defs><g id="ic_other_divider-compass_47-13_1_bg" transform-origin="50% 50%" transform="matrix(1,0,0,1,0,0)"><path data-index="-1" d="m100.45 457.82c69 41.14 155.61 36.33 228.73 9.31 59.56-22 127.51-49.5 160.9-107 26.51-45.6 27.52-96.13 10.82-144.92-28.79-84.21-120.52-192.08-217.5-191.27-74.68.63-142.46 44.39-191.61 97.74-44.69 48.51-95.41 124.53-91.59 193.72 3.26 58.87 46.44 110.33 100.25 142.42z
" /></g><g style="transform-origin: center;" transform-origin="50% 50%" class="icons_factory_base_code"  id="ic_other_divider-compass_47-13_1_code"><g transform-origin="50% 50%" class=""><g class="icons_factory_shape icons_factory_ag icons_factory_ag_e" data-index="0"><path id="ic_other_divider-compass_47-13_1_1"  fill="#000000" d="m140.63 279.86c-2.18 1.15-1.73 14.72 0 16.8s228.61 2.6 230.52.87 2.6-15.76 0-17.32-227.23-2.08-230.52-.35z"  class="icons_factory_shape" data-index="1" data-color="1"></path><path id="ic_other_divider-compass_47-13_1_2"  fill="#ff5722" d="m244.37 259.77c3.3-3.46 22.69-2.08 24.77.52s2.77 53.86-.35 56.98-22 3.81-25.63.35c-3.64-3.46-2.43-54.04 1.21-57.85z"  class="icons_factory_shape" data-index="2" data-color="3"></path></g><path id="ic_other_divider-compass_47-13_1_3"  fill="#000000" d="m161.94 389.97c.45 5.15.38 10.02 3.28 10.03 2.47.01 10.32-21.65 9.87-22.98s-11.08-4.55-12.24-3.97c-1.16.59-1.25 12.95-.91 16.92z"  class="icons_factory_shape icons_factory_ag icons_factory_ag_e" data-index="3" data-color="1" style="-webkit-transform-origin: 50% 0% !important; transform-origin: 50% 0% !important; -ms-transform-origin: 50% 0% !important; -webkit-transform-box: fill-box; transform-box: fill-box;"></path><g class="icons_factory_shape icons_factory_ag icons_factory_ag_c" data-index="1" style="-webkit-transform-origin: 100% 0% !important; transform-origin: 100% 0% !important; -ms-transform-origin: 100% 0% !important; -webkit-transform-box: fill-box; transform-box: fill-box;"><path id="ic_other_divider-compass_47-13_1_5"  fill="#ff5722" d="m160.37 371.83c-.23 6.7 13.97 11.55 16.4 8.08 2.42-3.46 81.63-197.55 80.94-199.63s-26.32-7.62-28.75-6.23c-2.42 1.39-67.2 160.72-68.24 167.3s-.14 24.55-.35 30.48z"  class="icons_factory_shape" data-index="5" data-color="3"></path><path id="ic_other_divider-compass_47-13_1_6"  fill="#e64a19" d="m228.96 174.04c-.58.33-4.7 9.63-10.65 23.69 7.4 6.8 16.63 11.97 27.12 14.6 5.68-14.21 9.87-24.92 11.52-29.55-.54-1.51-25.79-10-27.99-8.74z"  class="icons_factory_shape" data-index="6" data-color="4"></path></g><path id="ic_other_divider-compass_47-13_1_7"  fill="#000000" d="m352.27 389.97c-.45 5.15-.38 10.02-3.28 10.03-2.47.01-10.32-21.65-9.87-22.98s11.08-4.55 12.24-3.97c1.16.59 1.25 12.95.91 16.92z"  class="icons_factory_shape icons_factory_ag icons_factory_ag_e" data-index="7" data-color="1" style="-webkit-transform-origin: 50% 0% !important; transform-origin: 50% 0% !important; -ms-transform-origin: 50% 0% !important; -webkit-transform-box: fill-box; transform-box: fill-box;"></path><g class="icons_factory_shape icons_factory_ag icons_factory_ag_c" data-index="2" style="-webkit-transform-origin: 0% 0% !important; transform-origin: 0% 0% !important; -ms-transform-origin: 0% 0% !important; -webkit-transform-box: fill-box; transform-box: fill-box;"><path id="ic_other_divider-compass_47-13_1_9"  fill="#ff5722" d="m353.84 371.83c.23 6.7-13.97 11.55-16.4 8.08-2.42-3.46-81.63-197.55-80.94-199.63s26.32-7.62 28.75-6.23c2.42 1.39 67.2 160.72 68.24 167.3s.14 24.55.35 30.48z"  class="icons_factory_shape" data-index="9" data-color="3"></path><path id="ic_other_divider-compass_47-13_1_10"  fill="#e64a19" d="m296.56 199.16c-6.33-14.99-10.48-24.6-11.08-24.94-2.21-1.26-27.69 7.09-28.23 8.6 1.69 4.77 6.01 15.8 11.95 30.65 11-1.72 20.27-6.99 27.36-14.31z"  class="icons_factory_shape" data-index="10" data-color="4"></path></g><g class="icons_factory_shape icons_factory_ag icons_factory_ag_a" data-index="3"><path id="ic_other_divider-compass_47-13_1_12"  fill="#000000" d="m240.39 90.05c2.2-2.01 29.1-3.29 31.52-.17s1.04 39.66.52 40.7-30.31 2.25-32.04.17c-1.74-2.08-2.08-38.8 0-40.7z"  class="icons_factory_shape" data-index="12" data-color="1"></path><path id="ic_other_divider-compass_47-13_1_13"  fill="#000000" d="m255.63 121.22c24.07 0 38.79 15.24 38.97 35.85.17 20.61-13.86 40.53-37.06 39.49-23.21-1.04-40.18-19.74-40.18-39.66-.01-19.92 12.63-35.68 38.27-35.68z"  class="icons_factory_shape" data-index="13" data-color="1"></path><path id="ic_other_divider-compass_47-13_1_14"  fill="#000000" d="m255.86 146.16c8.14 0 13.12 5.16 13.18 12.13s-4.69 13.71-12.54 13.36-13.59-6.68-13.59-13.42 4.28-12.07 12.95-12.07z"  class="icons_factory_shape" data-index="14" data-color="2"></path></g></g></g></defs><use xmlns:xlink="http://www.w3.org/1999/xlink" class="icons_factory_bg_shape" xlink:href="#ic_other_divider-compass_47-13_1_bg" fill="#efebe9"  /><use xmlns:xlink="http://www.w3.org/1999/xlink" xlink:href="#ic_other_divider-compass_47-13_1_code"/></svg>