<svg class="icons_factory" viewBox="0 0 512 512" xmlns="http://www.w3.org/2000/svg" xmlns:xlink="http://www.w3.org/1999/xlink" version="1.1"><image class="icons_factory_fallback_png" src="http://localhost:8888/wordpress-4-6/wp-content/plugins/icons-factory/presets/MY@BRU.png" width="512" height="512" /><defs><g style="transform-origin: center;" transform-origin="50% 50%" class="icons_factory_base_code"  id="ic_other_brainstorming-1_40-11_1_code"><g transform-origin="50% 50%" class=""><path id="ic_other_brainstorming-1_40-11_1_0"  fill="#FFF" d="m252 163.95c.59 17.78 2.19 173.08.39 183.89-1.62 9.73-7.84 27.3-19.72 29.15s-19.58-7.09-23.15-8.2-13.42 4.86-21.21-.47-6.08-19.24-8.22-21.63-14.23.43-20-7.55-.76-16.46-2.59-18.83-19.63-4.41-22.16-23.06c-2.9-21.46 14.26-25.65 14.17-28.98s-14.23-21.54-7.08-43.91c7.17-22.42 25.98-24.82 27.08-26.78 1.1-1.95-7.52-14.35 3.82-32.12s27.71-12.99 30.02-14.51-.4-8.59 7.48-18.51c7.28-9.16 21.2-11.41 31.26-5.63 9.15 5.27 9.32 19.36 9.91 37.14z"  class="icons_factory_shape icons_factory_ag icons_factory_ag_a" data-index="0" data-color="1" style="-webkit-transform-origin: 100% 50% !important; transform-origin: 100% 50% !important; -ms-transform-origin: 100% 50% !important; -webkit-transform-box: fill-box; transform-box: fill-box;"></path><path id="ic_other_brainstorming-1_40-11_1_1"  fill="#FFF" d="m264.98 160.29c-.93 17.85-2.59 173.97-.96 184.86 1.46 9.8 4.18 20.78 18.7 27.86 10.96 5.34 21.49-3.34 24.95-4.47s11.71.37 19.7-4.86 11.48-16.93 13.65-18.15 12.71-.17 18.71-8.1 1.09-16.23 1.79-18.81 16.4-5.64 19.35-22.61c3.63-20.87-13.37-26.51-13.84-29.33s12.78-12.71 8.65-32.41c-4.5-21.5-18.43-24.07-19.48-26.73s7.1-9.45 2.87-21.74c-4.2-12.17-15.15-12.01-16.74-14.68-1.59-2.66 2.3-9.34-4.38-17.59-6.95-8.59-21.05-4.26-23.4-5.53s-2.28-9.84-10.37-18.4c-6.33-6.7-20.13-10.17-29.3-2.38-8.11 6.91-8.97 15.22-9.9 33.07z"  class="icons_factory_shape icons_factory_ag icons_factory_ag_a" data-index="1" data-color="1" style="-webkit-transform-origin: 0% 50% !important; transform-origin: 0% 50% !important; -ms-transform-origin: 0% 50% !important; -webkit-transform-box: fill-box; transform-box: fill-box;"></path><path id="ic_other_brainstorming-1_40-11_1_2"  fill="#000000" d="m286.92 181.63c-2.81-2.67-68 58.91-66.01 64.06s22.04 3.54 24.76 6.69c2.72 3.14-19.8 60.98-17.21 63.32s65.46-58.1 64.55-63.56-18.63-3.71-22.25-7.19c-3.64-3.47 18.97-60.65 16.16-63.32z"  class="icons_factory_shape icons_factory_ag icons_factory_ag_c" data-index="2" data-color="3"></path><g class="icons_factory_shape icons_factory_ag icons_factory_ag_e" data-index="0"><path id="ic_other_brainstorming-1_40-11_1_4"  fill="#FFF" d="m97.42 275c2.98-.04 21.31-4.89 24.32-6.72 3.01-1.84-.56-12.27-2.85-12.73s-21.66 5.12-24.32 6.72c-2.53 1.52-.13 12.76 2.85 12.73z"  class="icons_factory_shape" data-index="4" data-color="1"></path><path id="ic_other_brainstorming-1_40-11_1_5"  fill="#FFF" d="m93.58 207.25c-2.34-2.39.8-11.61 4.37-11.65s20.57 5.63 22.6 7.65c2.03 2.03-.38 11.24-4.37 11.65-4 .41-20.03-5.03-22.6-7.65z"  class="icons_factory_shape" data-index="5" data-color="1"></path><path id="ic_other_brainstorming-1_40-11_1_6"  fill="#FFF" d="m135.06 170.48c-1.5-2.99 4.32-10.81 7.73-9.76s10.79 6.65 12.1 9.19c1.31 2.55-3.8 10.59-7.73 9.76s-10.46-5.91-12.1-9.19z"  class="icons_factory_shape" data-index="6" data-color="1"></path><path id="ic_other_brainstorming-1_40-11_1_7"  fill="#FFF" d="m119.17 338.76c-3.34-.16-7.31-9.05-4.73-11.51s11.07-6.16 13.94-6.05c2.86.11 7.37 8.5 4.73 11.51-2.65 3.02-10.26 6.22-13.94 6.05z"  class="icons_factory_shape" data-index="7" data-color="1"></path><path id="ic_other_brainstorming-1_40-11_1_8"  fill="#FFF" d="m411.4 216.12c-2.25-.23-14.83 2.58-17.22 4.13s1.21 11.91 2.91 12.58 15.11-2.78 17.22-4.13c2.01-1.29-.66-12.34-2.91-12.58z"  class="icons_factory_shape" data-index="8" data-color="1"></path><path id="ic_other_brainstorming-1_40-11_1_9"  fill="#FFF" d="m381.32 194.19c-3.35-.12-7.41-8.98-4.85-11.46 2.56-2.49 18.8-10.07 21.66-9.99s7.66 8.03 5.05 11.07c-2.62 3.04-18.19 10.51-21.86 10.38z"  class="icons_factory_shape" data-index="9" data-color="1"></path><path id="ic_other_brainstorming-1_40-11_1_10"  fill="#FFF" d="m425.54 267.86c2.84 1.78 1.94 11.47-1.51 12.35-3.46.88-21.32-.65-23.76-2.14s-2.27-11.02 1.51-12.35c3.78-1.34 20.65.19 23.76 2.14z"  class="icons_factory_shape" data-index="10" data-color="1"></path><path id="ic_other_brainstorming-1_40-11_1_11"  fill="#FFF" d="m406.44 316.91c2.36 2.37-.71 11.61-4.27 11.69-3.57.07-11.72-3-13.77-5.01-2.04-2.01.29-11.25 4.27-11.69 3.99-.45 11.17 2.4 13.77 5.01z"  class="icons_factory_shape" data-index="11" data-color="1"></path></g></g></g></defs><use xmlns:xlink="http://www.w3.org/1999/xlink" xlink:href="#ic_other_brainstorming-1_40-11_1_code"/></svg>