<svg class="icons_factory" viewBox="0 0 512 512" xmlns="http://www.w3.org/2000/svg" xmlns:xlink="http://www.w3.org/1999/xlink" version="1.1"><image class="icons_factory_fallback_png" src="http://localhost:8888/wordpress-4-6/wp-content/plugins/icons-factory/presets/MY@GUN.png" width="512" height="512" /><defs><g style="transform-origin: center;" transform-origin="50% 50%" class="icons_factory_base_code"  id="ic_other_revolver_53-05_1_code"><g transform-origin="50% 50%" class=""><g class="icons_factory_shape icons_factory_ag icons_factory_ag_a" data-index="0"><path id="ic_other_revolver_53-05_1_1"  fill="#ffffff" d="m255.29 278.02c1.53.26 5.32 6.11 11.38 9.12 5.02 2.49 11.96 3.52 14.59 2.49 2.63-1.02 4.03-9.77.14-10.5s-7.19-1.8-9.67-3.1c-1.93-1.01-4.1-4.36-3.42-5.88 0 0-4.27 1.93-6.82 3.51-2.56 1.6-6.2 4.36-6.2 4.36z"  class="icons_factory_shape icons_factory_ag icons_factory_ag_c" data-index="1" data-color="4" style="-webkit-transform-origin: 0% 0% !important; transform-origin: 0% 0% !important; -ms-transform-origin: 0% 0% !important; -webkit-transform-box: fill-box; transform-box: fill-box;"></path><path id="ic_other_revolver_53-05_1_2"  fill="#ffffff" d="m361.1 150.03c.2-5.73-18.6-40.72-21.81-42.02s-10.19 4.83-12.38 4.69-4.94-9.78-7.46-8.67c-2.52 1.1-11.14 20.81-15.35 23.24-2.27 1.31-106.56 57.66-109.85 63.3s-2.97 15.51-8.25 19.73-43.27 9.44-45.21 10.2c-3.42 1.34.3 7.2 3.35 8.24 3.06 1.04 29.47 1.23 30.25 14.11.77 12.88-19.1 42.25-20.39 75.27-1.28 33.01 7.33 74.41 22.77 81.55s66.12-15.87 69.3-31.94c3.18-16.08-37.91-39.77-33-64.57 2.94-14.87 16.46-20.53 23.74-13.05 6.25 6.42 19.15 30.6 50.34 14.99 34.79-17.4 11.23-51.03 12.68-53.98 1.46-2.95 15.2-10.88 15.87-20.04.68-9.16-15.78-37.66-15.23-42.18.55-4.54 60.43-33.14 60.63-38.87zm-79.18 144.98c-20.68 10.77-34.16-8.17-33.71-11.41.38-2.77 37.13-23.19 38.84-22.66 2.59.82 15.54 23.3-5.13 34.07z"  class="icons_factory_shape" data-index="2" data-color="3"></path><path id="ic_other_revolver_53-05_1_3"  fill="#ffffff" d="m234.74 217.6c7.02-4.24 42.78-25.33 44.77-24.51s8.76 11.15 6.8 13.28c-1.96 2.12-37.97 21.61-45.38 25.11-12.61 5.93-22.1-4.29-6.19-13.88z"  class="icons_factory_shape" data-index="3" data-color="4"></path><path id="ic_other_revolver_53-05_1_4"  fill="#ffffff" d="m248.07 240.66c7.02-4.24 43.12-24.7 45.12-23.85s4.44 11.25 2.49 13.39-34.93 19.15-42.34 22.64c-12.6 5.92-21.17-2.57-5.27-12.18z"  class="icons_factory_shape" data-index="4" data-color="4"></path></g><g class="icons_factory_shape icons_factory_ag icons_factory_ag_e" data-index="1" style="-webkit-transform-origin: 0% 100% !important; transform-origin: 0% 100% !important; -ms-transform-origin: 0% 100% !important; -webkit-transform-box: fill-box; transform-box: fill-box;"><path id="ic_other_revolver_53-05_1_6"  fill="#ffffff" d="m407.51 108.8c-6.51 4.99-19.56 12.28-21.7 12.22-3.58-.1-12.99-13.78-9.57-17.59 1.93-2.15 15.97-9.85 23.47-13.12 12.79-5.57 21.77 7.77 7.8 18.49z"  class="icons_factory_shape" data-index="6" data-color="1"></path><path id="ic_other_revolver_53-05_1_7"  fill="#ffffff" d="m367.65 107.93c2.12-.21 4.82 4.39 3.42 6.18s-10.99 7.98-12.81 8.18c-1.81.2-4.8-4.03-3.42-6.18 1.39-2.15 10.48-7.95 12.81-8.18z"  class="icons_factory_shape" data-index="7" data-color="1"></path><path id="ic_other_revolver_53-05_1_8"  fill="#ffffff" d="m372.71 121.21c2.12-.21 5.45 4.39 4.05 6.18s-7.2 5.45-9.01 5.65-5.95-4.48-4.05-6.18c2.02-1.81 6.68-5.42 9.01-5.65z"  class="icons_factory_shape" data-index="8" data-color="1"></path></g></g></g></defs><use xmlns:xlink="http://www.w3.org/1999/xlink" xlink:href="#ic_other_revolver_53-05_1_code"/></svg>