<svg class="icons_factory" viewBox="0 0 512 512"
			style="width:100%;"
			xmlns="http://www.w3.org/2000/svg" xmlns:xlink="http://www.w3.org/1999/xlink" version="1.1"><image class="icons_factory_fallback_png" src="http://localhost:8888/wordpress-4-6/wp-content/plugins/icons-factory/presets/MY@VBZ.png" width="512" height="512" /><defs><g id="ic_people-09_20-23_1_bg" transform-origin="50% 50%" transform="matrix(0.98,0,0,0.98,0,0)"><path data-index="-1" d="m100.45 457.82c69 41.14 155.61 36.33 228.73 9.31 59.56-22 127.51-49.5 160.9-107 26.51-45.6 27.52-96.13 10.82-144.92-28.79-84.21-120.52-192.08-217.5-191.27-74.68.63-142.46 44.39-191.61 97.74-44.69 48.51-95.41 124.53-91.59 193.72 3.26 58.87 46.44 110.33 100.25 142.42z
" /></g><mask id="ic_people-09_20-23_1_mask"> <use xmlns:xlink="http://www.w3.org/1999/xlink" stroke="#fff" stroke-width="4px" xlink:href="#ic_people-09_20-23_1_bg" fill="#fff" / > </mask><g style="transform-origin: center;" transform-origin="50% 50%" class="icons_factory_base_code" transform="matrix(1.3,0,0,1.3,5.12,92.16)" id="ic_people-09_20-23_1_code"><g transform-origin="50% 50%" class=""><g class="icons_factory_shape" data-index="0"><g class="icons_factory_shape icons_factory_ag icons_factory_ag_c" data-index="1" style="-webkit-transform-origin: 50% 100% !important; transform-origin: 50% 100% !important; -ms-transform-origin: 50% 100% !important; -webkit-transform-box: fill-box; transform-box: fill-box;"><path id="ic_people-09_20-23_1_2"  stroke="#000000" stroke-width="2" fill="#ffffff" d="m262 211.88s1.8 16.38 2.34 22.14a39.64 39.64 0 0 0 3.78 13.14c1.44 3.24 8.1 11.16 9 10.62s-.54-3.78-.54-4.5.72-3.06-.36-4.5c-1.08-1.26-3.06-7.2-2.88-8.46s2.52-1.62 2.7-2.52l.18-.9s-6.48-10.8-6.48-15.48c0-4.86-.18-11-.18-11s-1.08-.54-3.6 0a13.38 13.38 0 0 0 -3.96 1.46z"  class="icons_factory_shape" data-index="2" data-color="1"></path><path id="ic_people-09_20-23_1_3"  stroke="#000000" stroke-width="2" fill="#e91e63" d="m299.12 383.42s-2.88 2.16-9.9 2-13.14-1.44-20.52 2.7c-8.64 4.86-2.16 12.6.18 13.32s32.58 1.56 38.12 1.24c5.58-.54 3.78-14.76 3.78-14.76z"  class="icons_factory_shape" data-index="3" data-color="3"></path><path id="ic_people-09_20-23_1_4"  stroke="#000000" stroke-width="2" fill="#7b1fa2" d="m308.84 399.44c-2.7.18-16.2 1.08-24.3.9-9-.18-11.52-.9-14-1.8-3.06-1.08-5.76-2.52-5.94-5.58a7.06 7.06 0 0 0 4.5 8.28c2.7.9 5.94 1.62 15.48 2 7.56.18 20.34-.54 22.68-.72a3.84 3.84 0 0 0 3.06-2.88c-.58.36-.94-.38-1.48-.2z"  class="icons_factory_shape" data-index="4" data-color="4"></path><path id="ic_people-09_20-23_1_5"  stroke="#000000" stroke-width="2" fill="#e91e63" d="m309.38 402.68s-7 7.92-11.88 13.68-6.84 10.08-6.48 14.22 6.3 6.12 14.4 6.12c8.28 0 16.74-5 20.7-10.62 4.14-5.58 10.08-10.62 10.08-13.32s-.2-11.16-.2-11.16z"  class="icons_factory_shape" data-index="5" data-color="3"></path><path id="ic_people-09_20-23_1_6"  stroke="#000000" stroke-width="2" fill="#7b1fa2" d="m336.2 401.78h-.9c0 2.7.18 5.94.18 7.38 0 2.7-6.12 7.74-10.08 13.32-4.14 5.58-12.6 10.62-20.7 10.62-6.3 0-11.34-1.08-13.32-3.6v1.08c.18 4.14 6.3 6.12 14.4 6.12 8.28 0 16.74-5 20.7-10.62 4.14-5.58 10.08-10.62 10.08-13.32s-.36-10.98-.36-10.98z"  class="icons_factory_shape" data-index="6" data-color="4"></path><path id="ic_people-09_20-23_1_7"  stroke="#000000" stroke-width="2" fill="#7b1fa2" d="m273.56 228.62s-.9 23.4 2.88 43 17.1 47.52 17.1 56 4.14 34.2 3.78 41a135.29 135.29 0 0 1 -1.62 15.48s4.86 9 11.16 12.06 13-.72 13-.72l-11.56-162.86z"  class="icons_factory_shape" data-index="7" data-color="4"></path><path id="ic_people-09_20-23_1_8"  stroke="#000000" stroke-width="2" fill="#7b1fa2" d="m294.08 237.8s.54 25.74-.54 46.08 4.14 39.06 6.12 45.54 2.7 17.46 2.7 27.36.36 47.16 1.8 48.6 9.36 6.48 19.62 7.2c7.74.54 16.2-4.32 16.2-5.58s2.7-29.52.54-52.38-6.84-34.74-6.48-38.34c.18-3.6 5.58-52.38 5-62.46s-3.6-33.12-3.6-33.12z"  class="icons_factory_shape" data-index="8" data-color="4"></path><path id="ic_people-09_20-23_1_9"  stroke="#000000" stroke-width="2" fill="#e91e63" d="m270.15 147.8a235.32 235.32 0 0 0 -6.48 31.68c-2.67 19.26-1.26 45.52-1.26 45.52s3.78-2.88 11.16-2.88-3.42-74.32-3.42-74.32z"  class="icons_factory_shape" data-index="9" data-color="3"></path><path id="ic_people-09_20-23_1_10"  stroke="#000000" stroke-width="2" fill="#ffffff" d="m330.62 251.66a19.89 19.89 0 0 1 -4.14 9.18c-3.42 3.78-6.3 10.44-6.3 13.14 0 3.78 0 7 1.62 7.2 3.24.36 2-2.34 3.06-2.34s.54 4.68 5.4 4.86c6.3.18 15.3-4.14 15.3-8.28a75.7 75.7 0 0 0 -1.62-11.16 38.52 38.52 0 0 1 -.9-8.1z"  class="icons_factory_shape" data-index="10" data-color="1"></path><path id="ic_people-09_20-23_1_11"  stroke="#000000" stroke-width="2" fill="#e91e63" d="m307.76 102.26c17.1 4.5 36.18 8.28 42.66 22.14 5.58 11.88 5.22 15.66 4.86 26.82-.54 11.16-1.44 33.3-.9 40.5s-2 37.44-4.14 47.52-2.88 18.54-4.5 19.08-18.36-1.62-17.1-4.14c1.62-3.6 2.16-13.68 2.16-13.68s-7.92 9.72-25.56 7.2c-17.64-2.34-32.76-11-34.38-15.48-.72-2.16-1.08-35.64.54-44.64s-3.6-28.26-3.78-36.72 5.22-31.32 5.58-35.46c.36-6.12 7.56-20.16 34.56-13.14z"  class="icons_factory_shape" data-index="11" data-color="3"></path><path id="ic_people-09_20-23_1_12"  stroke="#000000" stroke-width="2" fill="#ffffff" d="m314.6 91.64s0 9.36 1.62 11 5.4 2.34 4.14 4.68-14.58 17.46-24.3 16.56c-9.54-.9-7.2-16.92-7.2-16.92z"  class="icons_factory_shape" data-index="12" data-color="1"></path><path id="ic_people-09_20-23_1_13"  stroke="#000000" stroke-width="2" fill="#ffffff" d="m279 70.58c-4 5-2.34 19.8-.54 26.46a127.26 127.26 0 0 0 4.86 13.14c.72 2.52 3.42 6.48 7 6.3s14.76-7.38 18.18-12.78 7.92-10.62 8.64-14.22 1.08-5.22-2-5.94-9.54-14.04-17.82-14.54-15.84-1.3-18.32 1.58z"  class="icons_factory_shape" data-index="13" data-color="1"></path><path id="ic_people-09_20-23_1_14"  stroke="#000000" stroke-width="2" fill="#7b1fa2" d="m276.62 74.18c-.72 2.88 1.44 5.94 9.9 5.94s13.68-4.12 14.58-1.44 3.24 10.26 4 11.88 1.8 3.6 2.34 2.88 3.24-7 5.22-8.46a6.09 6.09 0 0 1 3.06-1.44s2.88-14.94-3.6-22.68c-6.52-7.92-29.02-9.72-35.5 13.32z"  class="icons_factory_shape" data-index="14" data-color="4"></path><path id="ic_people-09_20-23_1_15"  stroke="#000000" stroke-width="2" fill="#7b1fa2" d="m282.92 106.76a5.49 5.49 0 0 1 2.88-1.44 27.73 27.73 0 0 1  3.42.36 41.84 41.84 0 0 1  4.86 2s-5 0-6.66-.18a19.91 19.91 0 0 1 -4.5-.74z"  class="icons_factory_shape" data-index="15" data-color="4"></path><path id="ic_people-09_20-23_1_16"  stroke="#000000" stroke-width="2" fill="#7b1fa2" d="m286.16 111.08 2.16.18s-.36 1.08 1.08 2.34 5.22 1.44 5.22 1.44-3.06 2.34-5.76 1.62a6.8 6.8 0 0 1 -4-3.24s.9-.18 1.08-.9a2.27 2.27 0 0 0  .22-1.44z"  class="icons_factory_shape" data-index="16" data-color="4"></path></g><g class="icons_factory_shape icons_factory_ag icons_factory_ag_a" data-index="2" style="-webkit-transform-origin: 50% 100% !important; transform-origin: 50% 100% !important; -ms-transform-origin: 50% 100% !important; -webkit-transform-box: fill-box; transform-box: fill-box;"><path id="ic_people-09_20-23_1_18"  stroke="#000000" stroke-width="2" fill="#ffffff" d="m169.71 159.14s-6.71 25.2-6.71 30.24 4 18.36 8.64 25.92c4.68 7.38 9.72 18.9 9.72 18.9l3.78-7.2s-4-18.9-6.3-25.38-3.42-7.56-1.62-13.32c2-5.94 5.4-15.48 5.4-15.48z"  class="icons_factory_shape" data-index="18" data-color="1"></path><g class="icons_factory_shape" data-index="3"><path id="ic_people-09_20-23_1_20"  stroke="#000000" stroke-width="2" fill="#ffffff" d="m179.25 219.8c-4.32 5.76-20.7 25.74-16 54s12.75 43.56 11.32 50.2-6.66 19.44-5.4 33.66c1.44 17.46 6.66 35.46 6.84 41.4s2.34 11.34.72 15.84-5.58 7.92-1.62 11c3.24 2.52 1.8-1.08 18.36 4.86 22.14 8.1 17.46-3.24 6.48-5.22-4-.72-7.38-8.64-8.64-13.86-.54-2.16-2.16-28.44-.72-40.68 1.44-12.06 1.62-30.78 1.44-36.18s4.32-25.92 6.12-36c2.52-15.3 7.2-69.3 7.2-69.3z"  class="icons_factory_shape" data-index="20" data-color="1"></path><path id="ic_people-09_20-23_1_21"  stroke="#000000" stroke-width="2" fill="#e91e63" d="m176 416.72s-4.14 4.68-4 8.82 3.42 10.26 3.42 12.6v5.76l3.06 1.8 2.88-1.44s-1.26-9.54.9-11 8.64 3.42 13 4.5 14.94-.18 18.72-1.8c4-1.62.72-6.48-2.7-8.46-4.68-2.52-12.06-2.16-12.06-2.16a13.75 13.75 0 0 1 5 3.42c4.86 4.86-8.64 5.94-21.06-4.68-4.63-4.48-7.16-7.36-7.16-7.36z"  class="icons_factory_shape" data-index="21" data-color="3"></path></g><g class="icons_factory_shape" data-index="4"><path id="ic_people-09_20-23_1_23"  stroke="#000000" stroke-width="2" fill="#ffffff" d="m194.55 227.54s-9.72 23.22-9.72 34.38 7.38 15.3 8.82 18.9 2 15.3 5.4 29.16 7.56 22.5 3.6 32.58c-6.48 15.84-5.22 29.52-3.24 49 2 19.26.36 30.24-.18 33.3-.72 3.6-6.3 5.4-3.42 9.72 4 5.76 15.12 6.48 20 8.82 5.76 2.7 13 3.6 14.76.72 1.8-2.7.36-7-6.12-6.84-5.58.18-9.54-9-11.16-13.14-1.62-4 1.8-17.28 4.68-38.16 2.7-20.88 4-43.56 5.22-52.2 1.44-8.64 5.76-16.2 6.84-54.9 1.26-38.88-2.88-49.68-2.88-49.68z"  class="icons_factory_shape" data-index="23" data-color="1"></path><path id="ic_people-09_20-23_1_24"  stroke="#000000" stroke-width="2" fill="#e91e63" d="m197.61 427.16s-4.32 3.6-4.32 8.1c0 4.68 3.78 9.72 4.32 13.32a32.48 32.48 0 0 1  .36 6.3l3.42 1.62 3.42-1.44s-2.88-10.26.18-11 12.24 6.48 17.82 6.48 13.14-7 13.14-9.72-6.12-5.58-9.72-5.22a13 13 0 0 0 -5.23 1.1s5.58 2.34 6.3 4.32c.72 1.8-1.08 3.06-3.42 3.6-4.68.9-9.18-3.24-16.74-9.36-6.47-5.4-9.53-8.1-9.53-8.1z"  class="icons_factory_shape" data-index="24" data-color="3"></path></g><path id="ic_people-09_20-23_1_25"  stroke="#000000" stroke-width="2" fill="#7b1fa2" d="m228 231.14c.36 10.62 10.8 65.34 14.58 83.88.72 4-6.48 7.56-21.42 11.7s-23.76 3.78-33.48-6.3-24.66-6.66-29.52-9.36 2.52-26.64 3.06-46.26 11.34-35.64 11.34-35.64z"  class="icons_factory_shape" data-index="25" data-color="4"></path><path id="ic_people-09_20-23_1_26"  stroke="#000000" stroke-width="2" fill="#e91e63" d="m181.59 146c-4.5 2-14.22 10.08-12.42 16.74s8.46 29 9.9 35.46c1.44 6.3 2.16 15.66-.36 19.08s-7.71 13.14-7.71 13.14 17.82 4.86 32.94 4.86a112.38 112.38 0 0 0 25.56-2.7s-2.16-37.26-1.26-39.24 9-5.4 8.28-13.5c-.54-5.22-3.42-7.74-6.66-11-2.34-2.52-5.4-6.48-7.92-8.82-3.06-2.88-10.8-6.48-18.18-11.34-7.59-4.84-22.17-2.68-22.17-2.68z"  class="icons_factory_shape" data-index="26" data-color="3"></path><path id="ic_people-09_20-23_1_27"  stroke="#000000" stroke-width="2" fill="#ffffff" d="m224.79 162.92s2.7 2.16 1.08 13.68c-1.8 11.52-1.8 35.46 1.62 46.8 3.24 11.34 9.54 36.36 11.34 41 2 4.68 4.14 5.76 5.4 7.56.9 1.26 2.52 8.64 1.62 11.34-.9 2.52-5 9.18-8.64 10.26s-7.74 1.08-8.28-.54 3.06-2.16 3.6-4.68a112.51 112.51 0 0 0  .9-13.14c0-2.16-2.16-8.28-9-19.44s-12.78-20.52-14.76-32.94-5.76-48.06-4.86-54.72c1.08-9.5 12.96-14.36 19.98-5.18z"  class="icons_factory_shape" data-index="27" data-color="1"></path><path id="ic_people-09_20-23_1_28"  stroke="#000000" stroke-width="2" fill="#ffffff" d="m206.79 92.36c6.12 2.16 8.28 7.38 9.36 18.18s-.36 17.64-1.08 19.62c-.9 2-7.56 4.14-9.18 6.84s-2.88 8.46-2 9.72c1.8 2.34 3.06 2.16 3.06 2.16s-14.94 3.6-20.34 1.26-5.22-5.4-4.14-6.66 3.06-6.3 2-9-13.5-13.86-9.54-27c4.86-15.66 19.62-19.48 31.86-15.12z"  class="icons_factory_shape" data-index="28" data-color="1"></path><path id="ic_people-09_20-23_1_29"  stroke="#000000" stroke-width="2" fill="#7b1fa2" d="m191.49 88.76c-14.76 2.88-20.7 15.3-18 29 2.16 11 2.34 13.68.54 18-6.12 14.4-10.26 26.64-4 34 9.72 11.52 31.68 5.94 40.14-6.48 5.58-8.1 10.08-19.62 6.84-28.62-4.86-13.5-1.08-17.1.18-26.64s-10.76-22.32-25.7-19.26z"  class="icons_factory_shape" data-index="29" data-color="4"></path></g></g></g></defs><use xmlns:xlink="http://www.w3.org/1999/xlink" class="icons_factory_bg_shape" xlink:href="#ic_people-09_20-23_1_bg" fill="#f3e5f5"  /><use xmlns:xlink="http://www.w3.org/1999/xlink" xlink:href="#ic_people-09_20-23_1_code" mask="url(#ic_people-09_20-23_1_mask)"/></svg>