<svg class="icons_factory" viewBox="0 0 512 512" xmlns="http://www.w3.org/2000/svg" xmlns:xlink="http://www.w3.org/1999/xlink" version="1.1"><image class="icons_factory_fallback_png" src="http://localhost:8888/wordpress-4-6/wp-content/plugins/icons-factory/presets/MY@GFT.png" width="512" height="512" /><defs><filter id="ic_money_gift_46-35_1_shadow" x="-50%" y="-50%" height="200%" width="200%">

    <feGaussianBlur in="SourceAlpha" stdDeviation="20" result="ic_money_gift_46-35_1_blur"></feGaussianBlur>
    <feOffset dx="0" dy="10" result="ic_money_gift_46-35_1_shadow_effect_1" in="ic_money_gift_46-35_1_blur"></feOffset>

    <feFlood flood-color="#ef5350" flood-opacity="0.15" result="ic_money_gift_46-35_1_offset_color_1"></feFlood>
    <feComposite in="ic_money_gift_46-35_1_offset_color_1" in2="ic_money_gift_46-35_1_shadow_effect_1" operator="in" result="ic_money_gift_46-35_1_shadow_1"></feComposite>

    <feGaussianBlur in="SourceAlpha" stdDeviation="3" result="ic_money_gift_46-35_1_blur_2"></feGaussianBlur>
    <feOffset dx="0" dy="5" result="ic_money_gift_46-35_1_shadow_effect_2" in="ic_money_gift_46-35_1_blur_2"></feOffset>

    <feFlood flood-color="#ef5350" flood-opacity="0.5" result="ic_money_gift_46-35_1_offset_color_2"></feFlood>
    <feComposite in="ic_money_gift_46-35_1_offset_color_2" in2="ic_money_gift_46-35_1_shadow_effect_2" operator="in" result="ic_money_gift_46-35_1_shadow_2"></feComposite>

    <feMerge> 
        <feMergeNode in="ic_money_gift_46-35_1_shadow_1"></feMergeNode>
        <feMergeNode in="ic_money_gift_46-35_1_shadow_2"></feMergeNode>
        <feMergeNode in="SourceGraphic"></feMergeNode>
    </feMerge>

  </filter><g style="transform-origin: center;" transform-origin="50% 50%" class="icons_factory_base_code"  id="ic_money_gift_46-35_1_code"><g transform-origin="50% 50%" class=""><g class="icons_factory_shape icons_factory_ag icons_factory_ag_e" data-index="0" style="-webkit-transform-origin: 50% 100% !important; transform-origin: 50% 100% !important; -ms-transform-origin: 50% 100% !important; -webkit-transform-box: fill-box; transform-box: fill-box;"><path id="ic_money_gift_46-35_1_1"  fill="#FFF" d="m144.37 174.58s6.69-46.89 18.4-53.58 69.16 22.76 79.75 29.56c10.6 6.8 2.23 25.1 2.23 25.1z"  class="icons_factory_shape" data-index="1" data-color="1"></path><path id="ic_money_gift_46-35_1_2"  fill="#FFF" d="m370.87 174.58s-6.69-46.89-18.4-53.58-69.16 22.76-79.75 29.56c-10.6 6.8-2.23 25.1-2.23 25.1z"  class="icons_factory_shape" data-index="2" data-color="1"></path></g><g class="icons_factory_shape icons_factory_ag icons_factory_ag_e" data-index="1"><path id="ic_money_gift_46-35_1_4"  fill="#ef5350" d="m279.89 163.58c2.23-18.68 1.82-24.82-23.89-23.7-25.72 1.12-23.89 7.24-23.89 23.7 0 16.45 45.55 18.68 47.78 0z"  class="icons_factory_shape" data-index="4" data-color="3"></path><path id="ic_money_gift_46-35_1_5"  fill="#e53935" d="m279.5 148.35c-2.25-1.81-.28 6.26-23.09 6.26s-21.44-5.84-22.91-5.22c-1.47.63-1.39 7.14-1.39 10.66 0 .58 47.72.58 47.79 0 .41-3.48 1.85-9.88-.4-11.7z"  class="icons_factory_shape" data-index="5" data-color="4"></path></g><g class="icons_factory_shape icons_factory_ag icons_factory_ag_a" data-index="2"><path id="ic_money_gift_46-35_1_7"  fill="#ef5350" d="m380.62 366.73c-5.61 5.62-240.82 6.11-246.9.03s0-190.76 0-190.76h246.9s5.61 185.12 0 190.73z"  class="icons_factory_shape" data-index="7" data-color="3"></path><path id="ic_money_gift_46-35_1_8"  fill="#ef5350" d="m391.84 164.65c-5.14-7.48-261.86-2.34-269.35 0-8 2.5-7.8 53.51 0 53.51 9.99 0 262.63 5.97 269.35 0 3.26-2.9 6.1-44.64 0-53.51z"  class="icons_factory_shape icons_factory_ag icons_factory_ag_c" data-index="8" data-color="3"></path><mask id="ic_money_gift_46-35_1_7_shape_mask"><path fill="#fff" d="m380.62 366.73c-5.61 5.62-240.82 6.11-246.9.03s0-190.76 0-190.76h246.9s5.61 185.12 0 190.73z" class=""></path></mask><g mask="url(#ic_money_gift_46-35_1_7_shape_mask)"><path id="ic_money_gift_46-35_1_9"  fill="#e53935" d="m132.53 218.46-.52 14.97 250.19.79-.45-14.53z"  class="icons_factory_shape icons_factory_ag icons_factory_ag_c" data-index="9" data-color="4"></path></g><path id="ic_money_gift_46-35_1_10"  fill="#FFF" d="m230.84 180.74c-.35 38.67-1.12 190.2.15 191.8 1.57 1.99 50.89 1.8 52.37-.05 1.19-1.49.47-152.78.14-191.58z"  class="icons_factory_shape icons_factory_ag icons_factory_ag_c" data-index="10" data-color="1" style="-webkit-transform-origin: 50% 100% !important; transform-origin: 50% 100% !important; -ms-transform-origin: 50% 100% !important; -webkit-transform-box: fill-box; transform-box: fill-box;"></path><mask id="ic_money_gift_46-35_1_10_shape_mask"><path fill="#fff" d="m230.84 180.74c-.35 38.67-1.12 190.2.15 191.8 1.57 1.99 50.89 1.8 52.37-.05 1.19-1.49.47-152.78.14-191.58z" class=" icons_factory_ag icons_factory_ag_c"></path></mask><g mask="url(#ic_money_gift_46-35_1_10_shape_mask)"><path id="ic_money_gift_46-35_1_11"  fill="#E6E6E6" d="m283.75 219.03-53.22-.03c-.02 1.66.04 7.04-.03 14.81l53.31.03c-.06-7.49-.04-12.88-.06-14.81z"  class="icons_factory_shape icons_factory_ag icons_factory_ag_c" data-index="11" data-color="2"></path></g><path id="ic_money_gift_46-35_1_12"  fill="#FFF" d="m294.36 160.54c-3.82-3.18-70.41-1.6-74.13 0-3.71 1.6-4.84 57.12 0 59.66s69.01 1.81 74.13.04c5.11-1.78 3.81-56.52 0-59.7z"  class="icons_factory_shape icons_factory_ag icons_factory_ag_c" data-index="12" data-color="1"></path></g></g></g><g transform-origin="50% 50%" class="icons_factory_base_code "  id="ic_money_gift_46-35_1_raw-clone"><path d="m144.37 174.58s6.69-46.89 18.4-53.58 69.16 22.76 79.75 29.56c10.6 6.8 2.23 25.1 2.23 25.1z"  class="icons_factory_shape"/><path d="m370.87 174.58s-6.69-46.89-18.4-53.58-69.16 22.76-79.75 29.56c-10.6 6.8-2.23 25.1-2.23 25.1z"  class="icons_factory_shape"/><path d="m279.89 163.58c2.23-18.68 1.82-24.82-23.89-23.7-25.72 1.12-23.89 7.24-23.89 23.7 0 16.45 45.55 18.68 47.78 0z"  class="icons_factory_shape"/><path d="m279.5 148.35c-2.25-1.81-.28 6.26-23.09 6.26s-21.44-5.84-22.91-5.22c-1.47.63-1.39 7.14-1.39 10.66 0 .58 47.72.58 47.79 0 .41-3.48 1.85-9.88-.4-11.7z"  class="icons_factory_shape"/><path d="m380.62 366.73c-5.61 5.62-240.82 6.11-246.9.03s0-190.76 0-190.76h246.9s5.61 185.12 0 190.73z"  class="icons_factory_shape"/><path d="m391.84 164.65c-5.14-7.48-261.86-2.34-269.35 0-8 2.5-7.8 53.51 0 53.51 9.99 0 262.63 5.97 269.35 0 3.26-2.9 6.1-44.64 0-53.51z"  class="icons_factory_shape icons_factory_ag icons_factory_ag_c"/><path d="m132.53 218.46-.52 14.97 250.19.79-.45-14.53z"  class="icons_factory_shape icons_factory_ag icons_factory_ag_c"/><path d="m230.84 180.74c-.35 38.67-1.12 190.2.15 191.8 1.57 1.99 50.89 1.8 52.37-.05 1.19-1.49.47-152.78.14-191.58z"  class="icons_factory_shape icons_factory_ag icons_factory_ag_c" style="-webkit-transform-origin: 50% 100% !important; transform-origin: 50% 100% !important; -ms-transform-origin: 50% 100% !important; -webkit-transform-box: fill-box; transform-box: fill-box;"/><path d="m283.75 219.03-53.22-.03c-.02 1.66.04 7.04-.03 14.81l53.31.03c-.06-7.49-.04-12.88-.06-14.81z"  class="icons_factory_shape icons_factory_ag icons_factory_ag_c"/><path d="m294.36 160.54c-3.82-3.18-70.41-1.6-74.13 0-3.71 1.6-4.84 57.12 0 59.66s69.01 1.81 74.13.04c5.11-1.78 3.81-56.52 0-59.7z"  class="icons_factory_shape icons_factory_ag icons_factory_ag_c"/></g></defs><use xmlns:xlink="http://www.w3.org/1999/xlink" class="icons_factory_fx_sticker" xlink:href="#ic_money_gift_46-35_1_raw-clone" fill="#ffffff" stroke="#ffffff" stroke-width="33" stroke-linecap="round" stroke-linejoin="round" filter="url(#ic_money_gift_46-35_1_shadow)" /><use xmlns:xlink="http://www.w3.org/1999/xlink" xlink:href="#ic_money_gift_46-35_1_code"/></svg>