<svg class="icons_factory" viewBox="0 0 512 512" xmlns="http://www.w3.org/2000/svg" xmlns:xlink="http://www.w3.org/1999/xlink" version="1.1"><image class="icons_factory_fallback_png" src="http://localhost:8888/wordpress-4-6/wp-content/plugins/icons-factory/presets/MY@LUM.png" width="512" height="512" /><defs><g id="ic_other_lamp_35-38_1_bg" transform-origin="50% 50%" transform="matrix(0.8,0,0,0.8,0,0)"><path data-index="-1" d="M512 256c0 141.4-114.6 256-256 256S0 397.4 0 256 114.6 0 256 0s256 114.6 256 256z
" /></g><g style="transform-origin: center;" transform-origin="50% 50%" class="icons_factory_base_code"  id="ic_other_lamp_35-38_1_code"><g transform-origin="50% 50%" class=""><g class="icons_factory_shape icons_factory_ag icons_factory_ag_a" data-index="0" style="-webkit-transform-origin: 50% 100% !important; transform-origin: 50% 100% !important; -ms-transform-origin: 50% 100% !important; -webkit-transform-box: fill-box; transform-box: fill-box;"><path id="ic_other_lamp_35-38_1_1"  fill="#0066ff" d="m301.33 322.67c-.7-2.87-12.1-4.67-47.67-4.67-33.62 0-41.08 6.99-42 8.67-1.88 3.42-.35 45.95 4.26 54.83 4.16 8.02 10.78 9.72 15.27 10.52.76 4.78 3.55 13.49 7.1 17.92 4.87 6.06 27.25 4.7 32.63.09 4.4-3.78 9.51-14.11 10.26-18.84 5.09-.83 12.51-2.7 15.53-10.59 2.94-7.66 5.99-52.3 4.62-57.93z"  class="icons_factory_shape" data-index="1" data-color="3"></path><path id="ic_other_lamp_35-38_1_2"  fill="#FFF" d="m353.45 210.49c0-55.37-46.64-99.85-102.77-96.3-48.25 3.05-87.36 42.48-90.06 90.75-1.62 29.01 9.58 55.43 28.45 74.11 13.76 13.62 22.17 41.28 22.05 54.78-.12 13.49 89.54 6.49 90.21-.25 1.81-18.2 9.06-40.71 22.35-53.43 18.35-17.54 29.77-42.26 29.77-69.66z"  class="icons_factory_shape" data-index="2" data-color="1"></path><path id="ic_other_lamp_35-38_1_3"  fill="#0037ff" d="m231.62 391.88c-1.08.12 1.81 12 6.68 18.06s27.25 4.7 32.63.09 11.25-18.95 10.26-18.84-4.82 2.1-27.2 2.81c-15.68.5-21.28-2.25-22.37-2.12z"  class="icons_factory_shape" data-index="3" data-color="4"></path></g><path id="ic_other_lamp_35-38_1_4"  fill="#FFF" d="m138.83 242.62c-2.62-3.51-13.92 1.12-22.84 7.61-3.44-11.29-12.55-23-17.79-21.1-5.87 2.13-4.52 32.96 8.63 39.43 14.19 6.98 37.38-18.74 32-25.94z"  class="icons_factory_shape icons_factory_ag icons_factory_ag_e" data-index="4" data-color="1" style="-webkit-transform-origin: 0% 100% !important; transform-origin: 0% 100% !important; -ms-transform-origin: 0% 100% !important; -webkit-transform-box: fill-box; transform-box: fill-box;"></path><path id="ic_other_lamp_35-38_1_5"  fill="#FFF" d="m398.89 133.01c-4.12-2.89-14.84 2.53-16.69 11.51-7.63-5.32-19.58-7.83-21.91-4.1-2.6 4.17 13.04 21.26 24.54 20.24 13.67-1.21 17.42-25.3 14.06-27.65z"  class="icons_factory_shape icons_factory_ag icons_factory_ag_f" data-index="5" data-color="1" style="-webkit-transform-origin: 100% 100% !important; transform-origin: 100% 100% !important; -ms-transform-origin: 100% 100% !important; -webkit-transform-box: fill-box; transform-box: fill-box;"></path><path id="ic_other_lamp_35-38_1_6"  fill="#0066ff" d="m255.25 170.53c-4.13-3.69-18.28 2.38-27.68 12.66-7.11-13.12-20.03-22.81-26.05-19.14-6.73 4.11 2.42 38.78 20.63 42.22 23.23 4.39 41.58-28.18 33.1-35.74z"  class="icons_factory_shape icons_factory_ag icons_factory_ag_c" data-index="6" data-color="3" style="-webkit-transform-origin: 50% 100% !important; transform-origin: 50% 100% !important; -ms-transform-origin: 50% 100% !important; -webkit-transform-box: fill-box; transform-box: fill-box;"></path><path id="ic_other_lamp_35-38_1_7"  fill="#FFF" d="m405.2 256.42c-4.5.33-8.73 12.66-8.76 24.02-11.48-4.01-25.56-3.96-27.17 1.55-1.8 6.17 24.65 23.8 38.03 16.8 14.44-7.55 12.27-43.41-2.1-42.37z"  class="icons_factory_shape icons_factory_ag icons_factory_ag_d" data-index="7" data-color="1" style="-webkit-transform-origin: 100% 100% !important; transform-origin: 100% 100% !important; -ms-transform-origin: 100% 100% !important; -webkit-transform-box: fill-box; transform-box: fill-box;"></path></g></g></defs><use xmlns:xlink="http://www.w3.org/1999/xlink" class="icons_factory_bg_shape" xlink:href="#ic_other_lamp_35-38_1_bg" fill="#ffd3de" stroke="#ffffff" stroke-width="3" /><use xmlns:xlink="http://www.w3.org/1999/xlink" xlink:href="#ic_other_lamp_35-38_1_code"/></svg>