<svg class="icons_factory" viewBox="0 0 512 512" xmlns="http://www.w3.org/2000/svg" xmlns:xlink="http://www.w3.org/1999/xlink" version="1.1"><image class="icons_factory_fallback_png" src="http://localhost:8888/wordpress-4-6/wp-content/plugins/icons-factory/presets/MY@SGR.png" width="512" height="512" /><defs><g style="transform-origin: center;" transform-origin="50% 50%" class="icons_factory_base_code" transform="matrix(1.1,0,0,1.1,0,0)" id="ic_other_bolt-nut_38-43_1_code"><g transform-origin="50% 50%" class=""><g class="icons_factory_shape icons_factory_ag icons_factory_ag_a" data-index="0" style="-webkit-transform-origin: 100% 0% !important; transform-origin: 100% 0% !important; -ms-transform-origin: 100% 0% !important; -webkit-transform-box: fill-box; transform-box: fill-box;"><path id="ic_other_bolt-nut_38-43_1_1"  stroke="#607d8b" stroke-width="5" fill="#FFF" d="m346.21 201.92s-13.23 22.91-15.68 27.16c-2.46 4.25-16.62 8.51-17.43 9.91s7.71 13.85 1.74 17.26-16.44 8.19-17.47 9.98c-1.03 1.78 7.33 14.02 1.78 17.19s-16.28 7.92-17.47 9.98 6.59 14.49 1.74 17.26-16.58 8.44-17.47 9.98c-.88 1.53 8.47 13.37 1.78 17.19-6.68 3.82-16.64 8.54-17.47 9.98s7.85 13.58 1.86 17.05-16.48 8.26-19.12 12.83-14.15 24.51-14.15 24.51c-8.92 15.45-22.69 10.17-48.24-4.8-22.31-13.08-27.61-20.98-18.85-36.16 0 0 4.76-8.25 7.49-12.97 2.72-4.72-5.2-16.68-.58-19.27 4.61-2.59 16.23-7.84 17.31-9.7s-5.45-15.21-1.7-17.33 16.58-8.44 17.39-9.84-7.34-14.13-1.7-17.33c5.63-3.2 16.5-8.3 17.43-9.91.93-1.6-5.81-15-1.7-17.33s16.3-7.96 17.39-9.84c1.08-1.88-6.28-14.72-1.7-17.33 4.58-2.6 16.22-7.82 17.43-9.91 1.2-2.08-4.59-12.32-1.74-17.26s23.52-40.75 23.52-40.75z"  class="icons_factory_shape" data-index="1" data-color="1"></path><path id="ic_other_bolt-nut_38-43_1_2"  stroke="#607d8b" stroke-width="5" fill="#FFF" d="m398.61 167.78c-3.73-2.72-129.26-75.62-133.54-77.1-2.64-.92-19.08 1.79-21.71 5.5-1.95 2.76-18.7 32.39-23.13 40.07-4.44 7.68-2.01 12.13 4.57 16.05 4.14 2.47 36.66 22.63 69.11 41.36 32.78 18.93 69.22 38.98 72.71 40.51 6.22 2.74 9.42 2.27 13.86-5.41s21.93-36.73 23.13-40.07c1.42-3.97-2.6-19.16-5-20.91z"  class="icons_factory_shape" data-index="2" data-color="1"></path><path id="ic_other_bolt-nut_38-43_1_3"  stroke="#607d8b" stroke-width="5" fill="#E6E6E6" d="m399.02 168.01c-1.01-.74-28.06-16.63-34.11-20.16-7.8-4.54-44.8 60.76-37.11 65.09 5.09 2.86 37.27 20.61 39.22 21.48 6.22 2.74 9.22 2.15 13.65-5.53 4.44-7.68 22.04-36.67 23.24-40.01 1.42-3.98-2.49-19.11-4.89-20.87z"  class="icons_factory_shape" data-index="3" data-color="2"></path></g><g class="icons_factory_shape icons_factory_ag icons_factory_ag_c" data-index="1"><path id="ic_other_bolt-nut_38-43_1_5"  stroke="#607d8b" stroke-width="5" fill="#607d8b" d="m158.68 272.32c3.67 2.79 129.39 75.3 133.54 77.1 2.54 1.1 18.82-2.14 21.71-5.5 1.73-2 20.87-33.93 21.45-37.15.84-4.71-4.24-19.32-6.41-21.01-3.68-2.86-129.21-75.51-133.54-77.1-2.58-.94-16.83 2.83-20.3 5.59-1.18.94-20.97 34.43-21.45 37.15-.76 4.37 2.48 19.01 5 20.92z"  class="icons_factory_shape" data-index="5" data-color="3"></path><path id="ic_other_bolt-nut_38-43_1_6"  stroke="#607d8b" stroke-width="5" fill="#607d8b" d="m291.72 349.14c2.54 1.1 19.06-2 21.96-5.36 1.73-2 21-33.86 21.57-37.08.84-4.71-4.67-19.57-6.84-21.26-1.83-1.42-47.7-28.13-62.5-36.68-10.17-5.88-45.14 59.87-36.97 64.6 10.33 5.99 60.72 34.88 62.78 35.78z"  class="icons_factory_shape" data-index="6" data-color="4"></path></g></g></g></defs><use xmlns:xlink="http://www.w3.org/1999/xlink" xlink:href="#ic_other_bolt-nut_38-43_1_code"/></svg>