<svg class="icons_factory" viewBox="0 0 512 512" xmlns="http://www.w3.org/2000/svg" xmlns:xlink="http://www.w3.org/1999/xlink" version="1.1"><image class="icons_factory_fallback_png" src="http://localhost:8888/wordpress-4-6/wp-content/plugins/icons-factory/presets/MY@CLN.png" width="512" height="512" /><defs><g id="ic_other_brush_22-13_1_bg" transform-origin="50% 50%" transform="matrix(0.8,0,0,0.8,0,0)"><path data-index="-1" d="M512 256c0 141.4-114.6 256-256 256S0 397.4 0 256 114.6 0 256 0s256 114.6 256 256z
" /></g><g style="transform-origin: center;" transform-origin="50% 50%" class="icons_factory_base_code" transform="matrix(1.2,0,0,1.2,25.6,-25.6)" id="ic_other_brush_22-13_1_code"><g transform-origin="50% 50%" class=""><g class="icons_factory_shape icons_factory_ag icons_factory_ag_a" data-index="0"><path id="ic_other_brush_22-13_1_1"  fill="#FFF" d="m359.94 133.64c-3.86.53-20.74 28.65-24.54 26.83-4.34-2.07 13.51-31.34 13.38-34.66-.14-3.32-34.65-21.85-38.5-21.08s-12.7 19.22-17.32 17.32c-4.08-1.68 8.21-18.75 7.09-21.74s-22.7-9.45-25.35-8.14c-2.57 1.27-23.09 31.58-41.53 64.16-19.09 33.72-36.06 69.77-35.79 73.23.88 11.18 36.5 25.71 25.51 44.73-10.68 18.5-49.1 69.68-58.84 88.05-14.88 28.08 27.27 51.03 41.49 28.62 10.21-16.09 40.25-80.11 50.07-97.11s40.74 2.26 50.07-2.35c9.43-2.83 49.12-73.75 69.57-111.75 6.55-12 11.87-22.17 11.83-24.62-.06-3.44-23.28-22.02-27.14-21.49z"  class="icons_factory_shape" data-index="1" data-color="1"></path><path id="ic_other_brush_22-13_1_2"  fill="#E6E6E6" d="m221.06 256.45c2.98 3.51 22.81 25.26 47.93 30.17-13.57 1.11-13.18 8.47-19.92 19.2 4.38-9.19-23.03-29.02-32.99-20.93 4.4-6.45 7.26-10.71 8.3-14 1.66-5.23-.33-10.35-3.32-14.44z"  class="icons_factory_shape" data-index="2" data-color="2"></path><path id="ic_other_brush_22-13_1_3"  fill="#E6E6E6" d="m254.94 240.46c3.55-.91 10.38 1.46 11.84 8.93 1.03 5.26-3.1 9.47-7.1 10.2-4.01.73-10.93-2.55-12.2-7.47-1.33-5.09 1.81-10.2 7.46-11.66z"  class="icons_factory_shape" data-index="3" data-color="2"></path></g><mask id="ic_other_brush_22-13_1_1_shape_mask"><path fill="#fff" d="m359.94 133.64c-3.86.53-20.74 28.65-24.54 26.83-4.34-2.07 13.51-31.34 13.38-34.66-.14-3.32-34.65-21.85-38.5-21.08s-12.7 19.22-17.32 17.32c-4.08-1.68 8.21-18.75 7.09-21.74s-22.7-9.45-25.35-8.14c-2.57 1.27-23.09 31.58-41.53 64.16-19.09 33.72-36.06 69.77-35.79 73.23.88 11.18 36.5 25.71 25.51 44.73-10.68 18.5-49.1 69.68-58.84 88.05-14.88 28.08 27.27 51.03 41.49 28.62 10.21-16.09 40.25-80.11 50.07-97.11s40.74 2.26 50.07-2.35c9.43-2.83 49.12-73.75 69.57-111.75 6.55-12 11.87-22.17 11.83-24.62-.06-3.44-23.28-22.02-27.14-21.49z" class=""></path></mask><g mask="url(#ic_other_brush_22-13_1_1_shape_mask)"><path id="ic_other_brush_22-13_1_4"  fill="#f50057" d="M281.8,70.5c-21.7,8-42.3,44.7-46.7,82c-1.3,11,21.9,18,52.8,25.6c16.5,4,24,15.9,23.7,27.7c-0.4,14,18.3,12.5,18.3-0.2c0-13.1,13-17.5,24.2-18.5c11.2-1,27.7,1.3,35-10.2c8.6-13.6,25.6-35.9,18.1-56.7C398.8,96.9,305,61.9,281.8,70.5z"  class="icons_factory_shape icons_factory_ag icons_factory_ag_c" data-index="4" data-color="3"></path></g></g></g></defs><use xmlns:xlink="http://www.w3.org/1999/xlink" class="icons_factory_bg_shape" xlink:href="#ic_other_brush_22-13_1_bg" fill="#eceff1" stroke="#ffffff" stroke-width="3" /><use xmlns:xlink="http://www.w3.org/1999/xlink" xlink:href="#ic_other_brush_22-13_1_code"/></svg>