<svg class="icons_factory" viewBox="0 0 512 512"
			style="width:100%;"
			xmlns="http://www.w3.org/2000/svg" xmlns:xlink="http://www.w3.org/1999/xlink" version="1.1"><image class="icons_factory_fallback_png" src="http://localhost:8888/wordpress-4-6/wp-content/plugins/icons-factory/presets/REDSET@RED04.png" width="512" height="512" /><defs><radialGradient id="ic_communication_delivery-1_21-32_1_grad">
    <stop offset="20%" stop-color="rgba(0,0,0,0.1)"/>
    <stop offset="80%" stop-color="rgba(0,0,0,0.01)"/>
    <stop offset="100%" stop-color="rgba(0,0,0,0)"/>
    </radialGradient><g id="ic_communication_delivery-1_21-32_1_btm_shadow" class="icons_factory_cast_shadow"><ellipse cx="256" cy="460" rx="160" ry="20" fill="url(#ic_communication_delivery-1_21-32_1_grad)"></ellipse></g><g style="transform-origin: center;" transform-origin="50% 50%" class="icons_factory_base_code" transform="matrix(1,0,0,1,0,20.48)" id="ic_communication_delivery-1_21-32_1_code"><g transform-origin="50% 50%" class=" icons_factory_anim_imagebox_rubber_band icons_factory_anim"><g class="icons_factory_shape icons_factory_ag icons_factory_ag_c" data-index="0" style="-webkit-transform-origin: 50% 100% !important; transform-origin: 50% 100% !important; -ms-transform-origin: 50% 100% !important; -webkit-transform-box: fill-box; transform-box: fill-box;"><path id="ic_communication_delivery-1_21-32_1_1"  fill="#FFF" d="m292.67 300.94h-170.7s-3.79-36.54-3.79-70.76 3.79-74.42 3.79-74.42c0-4.18 3.39-7.57 7.57-7.57h155.73c4.18 0 7.57 3.39 7.57 7.57 0 0 4.54 33.89 4.54 70.49s-4.54 74.51-4.54 74.51c0 .1-.08.18-.17.18z"  class="icons_factory_shape" data-index="1" data-color="1" style="-webkit-transform-origin: 50% 0% !important; transform-origin: 50% 0% !important; -ms-transform-origin: 50% 0% !important; -webkit-transform-box: fill-box; transform-box: fill-box;"></path><path id="ic_communication_delivery-1_21-32_1_2"  fill="#E6E6E6" d="m294.48 168.35h-173.56s-1.32 7.28-.62 8.47c.35.59 43.31 1.57 86.57 1.56 43.9-.01 88.11-1.02 88.37-1.56.51-1.07-.76-8.47-.76-8.47z"  class="icons_factory_shape" data-index="2" data-color="2" style="-webkit-transform-origin: 50% 0% !important; transform-origin: 50% 0% !important; -ms-transform-origin: 50% 0% !important; -webkit-transform-box: fill-box; transform-box: fill-box;"></path><path id="ic_communication_delivery-1_21-32_1_3"  fill="#F16552" d="m295.97 170.14c-1.42 1.97-176.36 1.79-177.31 0s1.39-15.12 1.51-20.3c.13-5.18 3.57-7.97 7.97-7.97h158.53c4.4 0 7.37 2.36 7.97 7.97s2.75 18.33 1.33 20.3z"  class="icons_factory_shape" data-index="3" data-color="3" style="-webkit-transform-origin: 50% 0% !important; transform-origin: 50% 0% !important; -ms-transform-origin: 50% 0% !important; -webkit-transform-box: fill-box; transform-box: fill-box;"></path></g><g class="icons_factory_shape icons_factory_ag icons_factory_ag_a" data-index="1" style="-webkit-transform-origin: 0% 50% !important; transform-origin: 0% 50% !important; -ms-transform-origin: 0% 50% !important; -webkit-transform-box: fill-box; transform-box: fill-box;"><path id="ic_communication_delivery-1_21-32_1_5"  fill="#F16552" d="m111.5 341.72c0 3.04 0 5.5 12.01 5.5l274.73-.87c6.96 0 10.67-2.36 15.2-6.57 5-4.64 7.83-11.16 7.83-17.98v-35.18c0-5.06-1.56-10-4.48-14.13l-51.92-73.71c-2.42-3.43-6.35-5.47-10.54-5.47 0 0-50.43-1.01-54.24-.76-3.81.26-7.02 3.22-7.02 6.26 0 0-.55 76.39-.76 79.28s-.45 7.07-6.21 7.77-165.1 1.74-169.54 1.74c-7.75.03-5.06 54.12-5.06 54.12z"  class="icons_factory_shape" data-index="5" data-color="3"></path><path id="ic_communication_delivery-1_21-32_1_6"  fill="#FFF" d="m306.47 254.02s-.76-29.14-.76-37.41 4.07-10.44 8.16-10.44c0 0 34.31-1.59 39.52.6s31.76 43.04 31.76 43.04c1.83 2.66 1.64 5.85.14 8.21-1.28 2-3.5 3.4-6.23 3.4 0 0-59.93.71-65.19 0-5.25-.7-7.4-3.31-7.4-7.4z"  class="icons_factory_shape" data-index="6" data-color="1"></path><path id="ic_communication_delivery-1_21-32_1_7"  fill="#E55041" d="m416.64 336.16h-14.22c-2.56 0-4.81-1.62-5.7-4.01-6.29-16.87-22.54-28.89-41.6-28.89s-35.31 12.02-41.6 28.89c-.89 2.4-3.14 4.01-5.7 4.01h-90.8c-2.56 0-4.81-1.62-5.7-4.01-6.29-16.87-22.54-28.89-41.61-28.89-19.06 0-35.32 12.02-41.61 28.89-.89 2.4-3.14 4.01-5.7 4.01h-10.9v5.56c0 3.04.93 5.5 6.7 5.5l7.84-.06 88.07-.25 96.63-.32 86.06-.24c.45 0 .89-.02 1.33-.04.03 0 .05 0 .08-.01.43-.03.85-.06 1.28-.11 5.19-.59 10.09-2.82 13.95-6.4 1.19-1.11 2.26-2.33 3.2-3.63z"  class="icons_factory_shape" data-index="7" data-color="4" style="-webkit-transform-origin: 50% 100% !important; transform-origin: 50% 100% !important; -ms-transform-origin: 50% 100% !important; -webkit-transform-box: fill-box; transform-box: fill-box;"></path><path id="ic_communication_delivery-1_21-32_1_8"  fill="#E6E6E6" d="m359.66 242.43-16.18-21.8c-1.22-1.65-3.03-5.18-.17-6.1 2.78-.9 5.95-.21 7.17 1.43l16.18 21.8c1.22 1.65 2 4.42-.93 5.3-2.9.87-5.34.35-6.07-.63z"  class="icons_factory_shape" data-index="8" data-color="2"></path><path id="ic_communication_delivery-1_21-32_1_9"  fill="#E6E6E6" d="m334.44 232.1-8.68-11.7c-1.22-1.65-2.33-5.01.23-5.59 3-.69 5.66-.5 6.88 1.15l8.68 11.7c1.22 1.65 2.55 4.86-.67 5.76-2.65.74-5.71-.34-6.44-1.32z"  class="icons_factory_shape" data-index="9" data-color="2"></path><path id="ic_communication_delivery-1_21-32_1_10"  fill="#FFF" d="m422.15 290.96c.94-.09 3.98 7.96 5.23 9.57s9.53 4.19 9.57 5.23c.05 1.04-8.01 3.88-9.57 5.23s-4.06 9.6-5.23 9.57-2.96-7.49-5.23-9.57-9.65-4.08-9.57-5.23c.08-1.16 7.71-2.97 9.57-5.23s4.28-9.48 5.23-9.57z"  class="icons_factory_shape" data-index="10" data-color="1"></path><path id="ic_communication_delivery-1_21-32_1_11"  fill="#FFF" d="m169.72 382c-.07 0-.13 0-.19 0-21.04 0-34.12-13.25-34.12-34.23 0-18.84 13.95-32.92 33.93-34.17 19.08-1.18 32.88 12.41 34.33 33.88.67 10.04-1.98 18.64-7.67 24.71-5.98 6.36-15.07 9.81-26.28 9.81z"  class="icons_factory_shape" data-index="11" data-color="1"></path><path id="ic_communication_delivery-1_21-32_1_12"  fill="#E6E6E6" d="m169.72 382c-.07 0-.13 0-.19 0-21.04 0-34.12-13.25-34.12-34.23 0-18.84 13.95-32.92 33.93-34.17 19.08-1.18 32.88 12.41 34.33 33.88.67 10.04-1.98 18.64-7.67 24.71-5.98 6.36-15.07 9.81-26.28 9.81zm1.9-62.04c-.62 0-1.24.02-1.88.06-16.65 1.04-27.84 12.15-27.84 27.64 0 8.28 2.69 27.55 27.65 27.64 9.43.02 16.96-2.62 21.7-7.68 4.43-4.72 6.48-11.55 5.93-19.74-1.15-17.16-11.1-27.92-25.56-27.92z"  class="icons_factory_shape" data-index="12" data-color="2"></path><path id="ic_communication_delivery-1_21-32_1_13"  fill="#E6E6E6" d="m169.54 359.17c-6.35 0-11.5-5.15-11.5-11.5s5.15-11.5 11.5-11.5 11.5 3.45 11.5 11.5-5.15 11.5-11.5 11.5z"  class="icons_factory_shape" data-index="13" data-color="2"></path><path id="ic_communication_delivery-1_21-32_1_14"  fill="#FFF" d="m357.2 381.87c-.73 0-1.46-.02-2.2-.07-19.72-.06-34.02-14.39-34.02-34.13 0-20.74 12.05-32.86 33.94-34.12 9.89-.57 18.32 2.15 24.38 7.87 6.5 6.14 9.94 15.22 9.94 26.26 0 10.18-3.83 19.35-10.77 25.81-5.85 5.44-13.34 8.38-21.27 8.38z"  class="icons_factory_shape" data-index="14" data-color="1"></path><path id="ic_communication_delivery-1_21-32_1_15"  fill="#E6E6E6" d="m357.2 381.87c-.73 0-1.46-.02-2.2-.07-19.72-.06-34.02-14.39-34.02-34.13 0-20.74 12.05-32.86 33.94-34.12 9.89-.57 18.32 2.15 24.38 7.87 6.5 6.14 9.94 15.22 9.94 26.26 0 10.18-3.83 19.35-10.77 25.81-5.85 5.44-13.34 8.38-21.27 8.38zm.36-61.92c-.74 0-1.49.02-2.25.07-18.46 1.07-27.83 10.37-27.83 27.64 0 16.27 11.37 27.64 27.64 27.64l.23.01c6.97.51 13.61-1.84 18.7-6.58 5.61-5.23 8.7-12.71 8.7-21.06 0-9.21-2.73-16.66-7.9-21.54-4.34-4.1-10.15-6.18-17.29-6.18z"  class="icons_factory_shape" data-index="15" data-color="2"></path><path id="ic_communication_delivery-1_21-32_1_16"  fill="#E6E6E6" d="m355.12 359.17c-7.91 0-11.5-5.15-11.5-11.5s2.5-11.5 11.5-11.5 11.5 5.15 11.5 11.5-3.6 11.5-11.5 11.5z"  class="icons_factory_shape" data-index="16" data-color="2"></path></g><path id="ic_communication_delivery-1_21-32_1_17"  fill="#F16552" d="m238.07 218.86c1.08-1.1 2.94-.6 3.34.89.87 3.26 1.34 6.75 1.34 10.43 0 21.35-13.33 36.59-35.56 35.56s-35.56-12.79-35.56-35.56 15.57-34.78 35.56-35.56c16.26-.63 28.68 10.99 27.7 13.14s-24 25.35-24 25.35c-1.45 1.44-3.79 1.44-5.24.01l-13.65-11.91c-1.64-1.62-3.21-2.27-5.82.73s-1.76 4.71-.29 6.16c0 0 17.53 19.39 21.3 19.39 2.49 0 19.59-17.07 30.88-28.63z"  class="icons_factory_shape icons_factory_ag icons_factory_ag_e" data-index="17" data-color="3"></path></g></g></defs><use xmlns:xlink="http://www.w3.org/1999/xlink" xlink:href="#ic_communication_delivery-1_21-32_1_btm_shadow"/><use xmlns:xlink="http://www.w3.org/1999/xlink" xlink:href="#ic_communication_delivery-1_21-32_1_code"/><g transform-origin="50% 50%" class="icons_factory_sparks_group_1 icons_factory_sparks_animation"><g transform-origin="0 0" transform="matrix(1.5,0,0,1.5,82.16,194.8)" class="icons_factory_spark" ><path class="icons_factory_spark_shape" fill="#fff" d="m10 0c .64-.06 2.69 5.38 3.54 6.46.84 1.09 6.43 2.84 6.46 3.54s-5.41 2.62-6.46 3.54c-1.06.91-2.75 6.48-3.54 6.46s-2-5.06-3.54-6.46-6.52-2.76-6.46-3.54 5.21-2.01 6.46-3.54 2.9-6.4 3.54-6.46z"/></g><g transform-origin="0 0" transform="matrix(1,0,0,1,143.6,322.8)" class="icons_factory_spark" ><path class="icons_factory_spark_shape" fill="#fff" d="m10 0c .64-.06 2.69 5.38 3.54 6.46.84 1.09 6.43 2.84 6.46 3.54s-5.41 2.62-6.46 3.54c-1.06.91-2.75 6.48-3.54 6.46s-2-5.06-3.54-6.46-6.52-2.76-6.46-3.54 5.21-2.01 6.46-3.54 2.9-6.4 3.54-6.46z"/></g><g transform-origin="0 0" transform="matrix(2.5,0,0,2.5,338.16,118)" class="icons_factory_spark" ><path class="icons_factory_spark_shape" fill="#fff" d="m10 0c .64-.06 2.69 5.38 3.54 6.46.84 1.09 6.43 2.84 6.46 3.54s-5.41 2.62-6.46 3.54c-1.06.91-2.75 6.48-3.54 6.46s-2-5.06-3.54-6.46-6.52-2.76-6.46-3.54 5.21-2.01 6.46-3.54 2.9-6.4 3.54-6.46z"/></g><g transform-origin="0 0" transform="matrix(1,0,0,1,425.2,348.4)" class="icons_factory_spark" ><path class="icons_factory_spark_shape" fill="#fff" d="m10 0c .64-.06 2.69 5.38 3.54 6.46.84 1.09 6.43 2.84 6.46 3.54s-5.41 2.62-6.46 3.54c-1.06.91-2.75 6.48-3.54 6.46s-2-5.06-3.54-6.46-6.52-2.76-6.46-3.54 5.21-2.01 6.46-3.54 2.9-6.4 3.54-6.46z"/></g></g></svg>